<svg width="25" height="24" viewBox="0 0 25 24" fill="none" xmlns="http://www.w3.org/2000/svg">
<path d="M2.34863 11.25H23.3486M21.8486 17.25V19.5C21.8486 19.6989 21.7696 19.8897 21.629 20.0303C21.4883 20.171 21.2975 20.25 21.0986 20.25H18.8486C18.6497 20.25 18.459 20.171 18.3183 20.0303C18.1776 19.8897 18.0986 19.6989 18.0986 19.5V17.25M21.8486 17.25H3.84863M21.8486 17.25V11.25L19.0455 4.95C18.9873 4.81672 18.8917 4.70322 18.7702 4.62333C18.6487 4.54343 18.5066 4.50058 18.3611 4.5H7.33613C7.19071 4.50058 7.0486 4.54343 6.92709 4.62333C6.80558 4.70322 6.70992 4.81672 6.65176 4.95L3.84863 11.25V17.25M7.59863 17.25V19.5C7.59863 19.6989 7.51962 19.8897 7.37896 20.0303C7.23831 20.171 7.04755 20.25 6.84863 20.25H4.59863C4.39972 20.25 4.20896 20.171 4.0683 20.0303C3.92765 19.8897 3.84863 19.6989 3.84863 19.5V17.25M6.84912 14.25H8.34912M17.3486 14.25H18.8486" stroke="#EFA163" stroke-width="1.60606" stroke-linecap="round" stroke-linejoin="round"/>
</svg>
