<svg width="21" height="10" viewBox="0 0 21 10" fill="none" xmlns="http://www.w3.org/2000/svg">
<path d="M20.2558 4.41074L16.2742 0.429072C16.0358 0.190815 15.6775 0.119553 15.3661 0.248507C15.0548 0.37746 14.8517 0.681242 14.8517 1.01824V3.54157C14.8517 3.65663 14.7584 3.7499 14.6433 3.7499H1.75C1.05964 3.7499 0.5 4.30955 0.5 4.99991C0.5 5.69026 1.05964 6.24991 1.75 6.24991H14.6433C14.7584 6.24991 14.8517 6.34318 14.8517 6.45824V8.98157C14.8517 9.31857 15.0548 9.62235 15.3661 9.7513C15.6775 9.88026 16.0358 9.809 16.2742 9.57074L20.2558 5.58907C20.5812 5.26366 20.5812 4.73616 20.2558 4.41074Z" fill="white"/>
</svg>
