<svg width="20" height="16" viewBox="0 0 20 16" fill="none" xmlns="http://www.w3.org/2000/svg">
<path d="M2.685 0.037 C 1.960 0.144,1.222 0.578,0.749 1.175 C 0.478 1.518,0.228 2.014,0.108 2.450 L 0.017 2.783 0.017 8.000 L 0.017 13.217 0.108 13.548 C 0.434 14.732,1.252 15.578,2.387 15.907 L 2.650 15.983 7.500 15.983 L 12.350 15.983 12.613 15.907 C 13.749 15.578,14.575 14.721,14.889 13.548 C 14.973 13.235,14.979 13.165,14.992 12.277 L 15.006 11.337 16.497 12.531 C 17.317 13.187,18.047 13.763,18.119 13.810 C 18.401 13.994,18.780 14.040,19.142 13.934 C 19.336 13.877,19.660 13.608,19.787 13.400 C 20.014 13.027,20.002 13.335,19.992 7.914 L 19.983 3.017 19.908 2.833 C 19.740 2.426,19.431 2.149,19.027 2.044 C 18.839 1.995,18.771 1.991,18.586 2.023 C 18.465 2.044,18.303 2.092,18.225 2.130 C 18.147 2.168,17.391 2.753,16.545 3.430 L 15.006 4.662 14.992 3.723 C 14.979 2.835,14.973 2.765,14.889 2.450 C 14.582 1.300,13.720 0.405,12.617 0.093 L 12.350 0.017 7.617 0.012 C 5.013 0.009,2.794 0.020,2.685 0.037 M12.314 1.399 C 12.585 1.469,12.854 1.613,13.090 1.816 C 13.290 1.987,13.541 2.379,13.635 2.668 L 13.717 2.917 13.717 8.000 L 13.717 13.083 13.637 13.328 C 13.448 13.903,13.030 14.346,12.467 14.565 L 12.250 14.650 7.587 14.659 C 2.453 14.669,2.744 14.680,2.313 14.464 C 1.901 14.257,1.549 13.846,1.374 13.366 L 1.283 13.117 1.275 8.071 C 1.266 3.034,1.266 3.024,1.336 2.765 C 1.425 2.434,1.597 2.141,1.850 1.885 C 2.101 1.632,2.349 1.486,2.668 1.402 C 2.909 1.339,3.062 1.337,7.486 1.335 C 11.936 1.333,12.063 1.335,12.314 1.399 M18.725 10.320 L 18.717 12.640 16.858 11.153 L 15.000 9.666 15.000 8.000 L 15.000 6.334 16.858 4.847 L 18.717 3.360 18.725 5.680 C 18.730 6.956,18.730 9.044,18.725 10.320 " fill="#F7F5F1" stroke="none" fill-rule="evenodd"></path>
</svg>