<svg width="20" height="16" fill="none" xmlns="http://www.w3.org/2000/svg">
<path d="M5.75.548c-.779.108-1.429.364-2.17.855-.45.299-1.221 1.057-1.547 1.522C.915 4.517.355 6.568.494 8.558c.148 2.124.883 3.915 2.139 5.22.854.886 1.72 1.389 2.811 1.63l.339.075h4.2c3.901 0 4.221-.004 4.493-.059 1.706-.348 3.169-1.543 4.092-3.344.44-.859.748-1.876.887-2.93.077-.588.077-1.712 0-2.3-.259-1.97-1.044-3.63-2.279-4.818-.881-.849-1.843-1.333-2.943-1.483C13.757.484 6.221.484 5.75.548m8.537 1.169c1.269.216 2.457 1.075 3.25 2.351.53.854.91 1.989 1.028 3.072.045.416.045 1.304 0 1.72-.277 2.546-1.739 4.631-3.708 5.285-.641.213-.44.205-4.857.205-3.711 0-4.039-.004-4.306-.059-.952-.194-1.65-.577-2.378-1.306-.492-.493-.789-.893-1.079-1.452C1.662 10.425 1.4 9.319 1.4 8s.262-2.425.837-3.533a5.444 5.444 0 0 1 1.062-1.436c.735-.738 1.489-1.152 2.384-1.311.412-.073 8.178-.076 8.604-.003M4.886 4.483a.626.626 0 0 0-.175.507c.01.06.448 1.455.974 3.101s.977 3.063 1.003 3.149c.098.327.353.489.59.377a.528.528 0 0 0 .188-.165c.036-.06.517-1.518 1.067-3.242.742-2.325 1-3.175 1-3.294 0-.204-.108-.435-.235-.5a.607.607 0 0 0-.233-.049c-.192 0-.335.146-.425.435-.306.99-1.485 4.653-1.503 4.673-.013.014-.367-1.051-.786-2.367-.419-1.315-.789-2.447-.823-2.516-.074-.148-.209-.225-.392-.225-.108 0-.156.022-.25.116m6.066-.013a.565.565 0 0 0-.153.225c-.024.083-.032 1.155-.026 3.378.01 3.228.011 3.256.079 3.348.231.308.541.298.731-.024.062-.105.068-.184.077-1.072l.01-.958.507-.001c.278 0 .56-.009.625-.02l.119-.019.475 1.061c.262.584.507 1.095.545 1.136.245.264.624.111.726-.294.053-.213.03-.283-.451-1.354l-.414-.921.142-.153c.314-.337.532-.752.657-1.252a3.202 3.202 0 0 0-.012-1.457c-.214-.823-.747-1.462-1.384-1.66-.191-.06-.309-.066-1.174-.066h-.962l-.117.103m2.167 1.136c.436.23.671.717.639 1.325-.024.479-.199.854-.5 1.071-.225.163-.405.198-1.031.198h-.56V5.495l.641.011c.621.01.647.014.811.1" fill="#F7F5F1" fill-rule="evenodd"/>
</svg>