<?xml version="1.0" encoding="utf-8"?><svg viewBox="0 0 44 44" xmlns="http://www.w3.org/2000/svg" xmlns:xlink="http://www.w3.org/1999/xlink"><style>:root>svg{display:none}:root>svg:target{display:block}</style><svg fill="none" viewBox="0 0 22 19" id="feedback" xmlns="http://www.w3.org/2000/svg"><path d="m18.847 14.637-.12-.137H6a.5.5 0 0 1-.5-.5V4a.5.5 0 0 1 .5-.5h15a.5.5 0 0 1 .5.5v12.889c-.093-.16-.215-.301-.36-.417l-2.293-1.835Z" stroke="#fff"/><path d="m3.153 11.637.12-.137H16a.5.5 0 0 0 .5-.5V1a.5.5 0 0 0-.5-.5H1a.5.5 0 0 0-.5.5v12.889a1.5 1.5 0 0 1 .36-.417l2.293-1.835Z" stroke="#fff"/><path fill="#142B36" d="M6 4h12v8H6z"/><rect x="8.25" y="7.25" width="10.5" height=".5" rx=".25" fill="#fff" stroke="#fff" stroke-width=".5"/><rect x="8.25" y="10.25" width="9.5" height=".5" rx=".25" fill="#fff" stroke="#fff" stroke-width=".5"/></svg>
<svg fill="none" viewBox="0 0 44 44" id="house-logo" xmlns="http://www.w3.org/2000/svg"><path d="M37.125 37.125V19.852a1.428 1.428 0 0 0-.447-1.015L22.928 6.342a1.375 1.375 0 0 0-1.856 0L7.322 18.837a1.426 1.426 0 0 0-.447 1.015v17.273" stroke="#4A566E" stroke-width="2.75" stroke-linecap="round" stroke-linejoin="round"/><path d="M26.125 37.125V27.5a1.375 1.375 0 0 0-1.375-1.375h-5.5a1.375 1.375 0 0 0-1.375 1.375v9.625" fill="#EFA163"/><path d="M26.125 37.125V27.5a1.375 1.375 0 0 0-1.375-1.375h-5.5a1.375 1.375 0 0 0-1.375 1.375v9.625M2.75 37.125h38.5" stroke="#4A566E" stroke-width="2.75" stroke-linecap="round" stroke-linejoin="round"/></svg>
</svg>