<svg aria-hidden="true" style="position: absolute; width: 0; height: 0; overflow: hidden;" version="1.1" xmlns="http://www.w3.org/2000/svg" xmlns:xlink="http://www.w3.org/1999/xlink">
<defs>
<symbol id="arrow-down" viewBox="0 0 32 32">
<path d="M6.656 10.671c-0.307 0.137-0.589 0.562-0.589 0.888 0 0.389 0.108 0.506 4.799 5.193 3.188 3.187 4.602 4.566 4.736 4.621 0.118 0.048 0.255 0.076 0.398 0.076s0.28-0.028 0.405-0.078l-0.007 0.003c0.23-0.095 9.167-8.996 9.354-9.316 0.239-0.411 0.21-0.794-0.090-1.134-0.174-0.202-0.43-0.328-0.715-0.328-0.14 0-0.273 0.030-0.392 0.085l0.006-0.002c-0.133 0.055-1.446 1.334-4.376 4.261l-4.186 4.183-4.186-4.183c-2.93-2.927-4.243-4.206-4.376-4.261-0.119-0.047-0.256-0.074-0.4-0.074-0.137 0-0.269 0.025-0.39 0.070l0.008-0.003z"></path>
</symbol>

<symbol id="line-arrow" viewBox="0 0 21 10" fill="none">
<path d="M20.2558 4.41074L16.2742 0.429072C16.0358 0.190815 15.6775 0.119553 15.3661 0.248507C15.0548 0.37746 14.8517 0.681242 14.8517 1.01824V3.54157C14.8517 3.65663 14.7584 3.7499 14.6433 3.7499H1.75C1.05964 3.7499 0.5 4.30955 0.5 4.99991C0.5 5.69026 1.05964 6.24991 1.75 6.24991H14.6433C14.7584 6.24991 14.8517 6.34318 14.8517 6.45824V8.98157C14.8517 9.31857 15.0548 9.62235 15.3661 9.7513C15.6775 9.88026 16.0358 9.809 16.2742 9.57074L20.2558 5.58907C20.5812 5.26366 20.5812 4.73616 20.2558 4.41074Z" fill="white"/>
</symbol>

<symbol id="bed" viewBox="0 0 32 32">
<path fill="currentColor" d="M8.507 5.371c-1.539 0.213-2.838 1.453-3.117 2.971-0.035 0.198-0.058 1.229-0.058 2.734 0 2.034-0.011 2.416-0.074 2.416-0.215 0.072-0.398 0.153-0.571 0.249l0.018-0.009c-0.872 0.445-1.534 1.196-1.854 2.108l-0.008 0.026-0.15 0.426-0.014 5.403c-0.010 3.595 0.003 5.47 0.040 5.606 0.082 0.302 0.453 0.626 0.774 0.674 0.051 0.009 0.11 0.015 0.17 0.015 0.477 0 0.875-0.336 0.971-0.784l0.001-0.007c0.034-0.16 0.058-0.877 0.058-1.736v-1.464h22.614v1.507c0 0.922 0.022 1.589 0.058 1.72 0.163 0.597 0.794 0.926 1.336 0.698 0.24-0.102 0.515-0.397 0.581-0.621 0.032-0.115 0.051-2.15 0.051-5.437-0.002-5.92 0.016-5.651-0.406-6.506-0.351-0.706-0.908-1.265-1.591-1.61l-0.020-0.009c-0.161-0.089-0.351-0.174-0.548-0.242l-0.026-0.008c-0.062 0-0.074-0.386-0.075-2.44 0-2.258-0.008-2.472-0.107-2.886-0.258-1.070-0.962-1.939-1.899-2.414l-0.021-0.010c-0.888-0.434-0.387-0.41-8.65-0.402-4.027 0.005-7.394 0.019-7.482 0.030zM23.68 7.498c0.363 0.155 0.647 0.435 0.803 0.786l0.004 0.010 0.154 0.32v4.72h-0.987c-0.918 0-0.986-0.006-0.986-0.096 0-0.434-0.432-0.995-0.88-1.149-0.384-0.13-3.19-0.13-3.574 0-0.448 0.154-0.88 0.715-0.88 1.149 0 0.091-0.078 0.096-1.333 0.096s-1.333-0.005-1.333-0.096c0-0.434-0.432-0.995-0.88-1.149-0.384-0.13-3.19-0.13-3.574 0-0.448 0.154-0.88 0.715-0.88 1.149 0 0.090-0.067 0.096-0.986 0.096h-0.987v-2.36l0.002-2.36 0.136-0.293c0.205-0.443 0.486-0.706 0.955-0.89 0.12-0.046 2.019-0.062 7.547-0.066l7.387-0.003 0.293 0.136zM26.347 15.498c0.362 0.156 0.646 0.436 0.803 0.785l0.004 0.010 0.154 0.32v5.414h-22.614l0.002-2.707v-2.707l0.136-0.293c0.206-0.443 0.488-0.706 0.957-0.89 0.12-0.046 2.64-0.062 10.213-0.066l10.053-0.003 0.294 0.136z"></path>
</symbol>

<symbol id="bathroom" viewBox="0 0 20 20" fill="none">
<path d="M2.5 10.8333V13.3333C2.5 14.2174 2.85119 15.0652 3.47631 15.6904C4.10143 16.3155 4.94928 16.6667 5.83333 16.6667H14.1667C15.0507 16.6667 15.8986 16.3155 16.5237 15.6904C17.1488 15.0652 17.5 14.2174 17.5 13.3333V11.3333C17.5 11.2007 17.4473 11.0735 17.3536 10.9798C17.2598 10.886 17.1326 10.8333 17 10.8333H2.5ZM2.5 10.8333V5.83333C2.5 4.94928 2.85119 4.10143 3.47631 3.47631C4.10143 2.85119 4.94928 2.5 5.83333 2.5H10M6.66667 16.6667L5.83333 18.3333M13.3333 16.6667L14.1667 18.3333" stroke="currentColor" stroke-width="1.5" stroke-linecap="round" stroke-linejoin="round"/>
<path d="M7.16667 6.66667H12.8333C13.1092 6.66667 13.33 6.44333 13.3 6.16833C13.1783 5.0625 12.6142 2.5 10 2.5C7.38583 2.5 6.82167 5.0625 6.7 6.16833C6.67 6.44333 6.89083 6.66667 7.16667 6.66667Z" stroke="currentColor" stroke-width="1.5" stroke-linecap="round" stroke-linejoin="round"/>
</symbol>

<symbol id="facebook" viewBox="0 0 32 32">
<path fill="currentColor" d="M18.155 4.451c-2.447 0.38-3.972 1.984-4.285 4.508-0.031 0.248-0.056 1.239-0.056 2.2v1.748h-3.627v4.107h3.627v10.613h4.373v-10.613h3.621l0.029-0.173c0.035-0.204 0.509-3.835 0.509-3.893 0-0.021-0.937-0.040-2.084-0.040h-2.084l0.035-3.443 0.179-0.364c0.141-0.287 0.232-0.396 0.427-0.52 0.464-0.295 0.652-0.324 2.235-0.353l1.453-0.027v-3.657l-0.2-0.031c-0.857-0.135-3.439-0.172-4.152-0.061z"></path>
</symbol>

<symbol id="house-single" viewBox="0 0 32 32">
<path d="M15.592 3.412c-0.323 0.068-0.699 0.275-1.033 0.569-1.505 1.322-10.081 9.173-10.175 9.316-0.068 0.102-0.176 0.313-0.24 0.471l-0.117 0.286-0.029 11.974h-1.121c-0.995 0-1.143 0.011-1.319 0.101-0.244 0.124-0.356 0.246-0.463 0.499-0.212 0.508 0.005 1.028 0.532 1.272 0.206 0.095 0.703 0.099 14.373 0.099s14.167-0.004 14.373-0.099c0.527-0.244 0.744-0.764 0.532-1.272-0.106-0.253-0.218-0.375-0.463-0.499-0.176-0.090-0.324-0.101-1.319-0.101h-1.121l-0.015-5.987-0.015-5.987-0.117-0.286c-0.076-0.183-0.156-0.337-0.248-0.484l0.008 0.014c-0.092-0.14-8.383-7.731-10.175-9.317-0.544-0.481-1.241-0.695-1.849-0.567zM21.052 9.92l4.967 4.507 0.004 5.8 0.004 5.8h-6.027v-3.064c0-2.065-0.020-3.156-0.060-3.347-0.133-0.621-0.537-1.127-1.079-1.398l-0.012-0.005-0.316-0.16h-5.066l-0.306 0.151c-0.557 0.279-0.964 0.788-1.099 1.399l-0.002 0.014c-0.040 0.191-0.060 1.281-0.060 3.347v3.064h-6.027l0.007-11.6 4.97-4.517c2.733-2.484 5.007-4.513 5.052-4.507s2.318 2.039 5.049 4.517zM18.014 23l-0.014 3h-4l-0.028-6h4.055l-0.014 3z"></path>
</symbol>

<symbol fill="none" viewBox="0 0 44 44" id="house-logo" xmlns="http://www.w3.org/2000/svg"><path d="M37.125 37.125V19.852a1.428 1.428 0 0 0-.447-1.015L22.928 6.342a1.375 1.375 0 0 0-1.856 0L7.322 18.837a1.426 1.426 0 0 0-.447 1.015v17.273" stroke="#4A566E" stroke-width="2.75" stroke-linecap="round" stroke-linejoin="round"/><path d="M26.125 37.125V27.5a1.375 1.375 0 0 0-1.375-1.375h-5.5a1.375 1.375 0 0 0-1.375 1.375v9.625" fill="#EFA163"/><path d="M26.125 37.125V27.5a1.375 1.375 0 0 0-1.375-1.375h-5.5a1.375 1.375 0 0 0-1.375 1.375v9.625M2.75 37.125h38.5" stroke="#4A566E" stroke-width="2.75" stroke-linecap="round" stroke-linejoin="round"/></symbol>

<symbol fill="none" viewBox="0 0 31 31" id="house-logo-white" xmlns="http://www.w3.org/2000/svg"><path d="M26.156 26.156v-12.17a1.003 1.003 0 0 0-.315-.714l-9.687-8.804a.969.969 0 0 0-1.308 0L5.16 13.272a1.004 1.004 0 0 0-.315.714v12.17" stroke="#fff" stroke-width="2" stroke-linecap="round" stroke-linejoin="round"/><path d="M18.406 26.156v-6.781a.969.969 0 0 0-.968-.969h-3.875a.969.969 0 0 0-.97.969v6.781" fill="#EFA163"/><path d="M18.406 26.156v-6.781a.969.969 0 0 0-.968-.969h-3.875a.969.969 0 0 0-.97.969v6.781M1.938 26.156h27.125" stroke="#fff" stroke-width="2" stroke-linecap="round" stroke-linejoin="round"/></symbol>

<symbol id="instagram" viewBox="0 0 32 32">
<path fill="currentColor" d="M8.96 3.012c-2.698 0.462-4.859 2.363-5.687 4.87l-0.015 0.051c-0.364 1.12-0.352 0.832-0.352 8.040 0 6.088 0.007 6.543 0.099 7.064 0.476 2.7 2.343 4.86 4.931 5.705 1.1 0.36 0.889 0.351 8.064 0.351 6.063 0 6.516-0.007 7.037-0.099 2.7-0.476 4.86-2.343 5.705-4.931 0.36-1.1 0.351-0.889 0.351-8.064 0-6.063-0.007-6.516-0.099-7.037-0.313-1.773-1.223-3.335-2.579-4.425-0.937-0.775-2.093-1.316-3.362-1.52l-0.040-0.005c-0.405-0.067-1.496-0.077-7.067-0.073-5.048 0.004-6.68 0.021-6.987 0.073zM23.067 5.375c0.917 0.259 1.702 0.738 2.321 1.379l0.001 0.001c0.527 0.549 0.884 1.132 1.127 1.832 0.249 0.717 0.257 0.924 0.257 7.413s-0.008 6.696-0.257 7.413c-0.49 1.369-1.512 2.443-2.811 2.992l-0.033 0.012c-0.875 0.349-0.412 0.329-7.672 0.329-6.112 0-6.613-0.007-6.952-0.093-0.873-0.215-1.627-0.637-2.236-1.212l0.002 0.002c-0.674-0.628-1.176-1.433-1.433-2.341l-0.009-0.036-0.12-0.427v-13.28l0.12-0.427c0.152-0.533 0.48-1.227 0.783-1.649 0.265-0.369 0.849-0.947 1.204-1.187 0.601-0.408 1.412-0.725 2.083-0.813 0.189-0.025 3.236-0.041 6.771-0.037l6.427 0.008 0.427 0.12zM14.752 9.259c-2.053 0.371-3.948 1.803-4.883 3.687-0.449 0.857-0.713 1.872-0.713 2.949 0 0.037 0 0.074 0.001 0.111l-0-0.006c0 1.875 0.675 3.495 2.011 4.832 1.336 1.335 2.956 2.009 4.832 2.009s3.496-0.675 4.832-2.009c0.718-0.705 1.279-1.568 1.626-2.533l0.015-0.047c0.238-0.671 0.375-1.446 0.375-2.252s-0.137-1.581-0.39-2.301l0.015 0.049c-0.831-2.328-2.88-4.076-5.267-4.492-0.592-0.103-1.876-0.101-2.455 0.003zM17.217 11.676c1.509 0.454 2.671 1.623 3.107 3.104l0.008 0.032c0.175 0.603 0.173 1.776-0.001 2.385-0.748 2.589-3.528 3.96-6.012 2.965-1.281-0.513-2.309-1.681-2.677-3.043-0.131-0.487-0.131-1.755 0-2.24 0.461-1.648 1.774-2.904 3.421-3.277l0.031-0.006c0.508-0.108 1.62-0.067 2.124 0.079z"></path>
</symbol>

<symbol id="linkedin" viewBox="0 0 32 32">
<path fill="currentColor" d="M5.84 4.075c-0.629 0.156-1.312 0.688-1.568 1.219-0.284 0.592-0.271 0.057-0.271 10.707s-0.013 10.115 0.271 10.707c0.156 0.325 0.696 0.865 1.021 1.021 0.592 0.284 0.057 0.271 10.707 0.271s10.115 0.013 10.707-0.271c0.325-0.156 0.865-0.696 1.021-1.021 0.284-0.592 0.271-0.057 0.271-10.707s0.013-10.115-0.271-10.707c-0.264-0.549-0.989-1.096-1.637-1.233-0.427-0.091-19.883-0.076-20.251 0.015zM10.307 7.453c1.911 0.893 1.521 3.689-0.567 4.073-0.92 0.169-1.872-0.339-2.289-1.22-0.159-0.336-0.171-0.399-0.168-0.92 0.003-0.488 0.020-0.599 0.143-0.865 0.153-0.333 0.537-0.777 0.827-0.956 0.326-0.192 0.719-0.305 1.138-0.305 0.332 0 0.647 0.071 0.931 0.199l-0.014-0.006zM21.504 13.583c1.254 0.451 2.224 1.421 2.668 2.643l0.010 0.031 0.165 0.464 0.015 3.853 0.016 3.853h-3.575l-0.029-6.8-0.143-0.304c-0.191-0.388-0.492-0.697-0.861-0.893l-0.011-0.005c-0.225-0.111-0.343-0.131-0.772-0.131-0.46 0-0.532 0.015-0.789 0.156-0.373 0.217-0.667 0.535-0.851 0.915l-0.005 0.013-0.141 0.303-0.016 3.373-0.015 3.373h-3.569v-10.827h3.573v0.693c0 0.381 0.017 0.693 0.040 0.692 0.023 0 0.109-0.099 0.193-0.217 0.347-0.491 1.224-1.063 1.96-1.28 0.271-0.080 0.475-0.096 1.007-0.084 0.58 0.015 0.727 0.037 1.131 0.179zM11.2 19.013v5.413h-3.573v-10.827h3.573v5.413z"></path>
</symbol>

<symbol id="phone" viewBox="0 0 32 32">
<path fill="currentColor" d="M9.787 3.072c-1.11 0.217-2.092 0.656-2.937 1.271l0.021-0.015c-1.137 0.854-2.003 2.012-2.482 3.355l-0.016 0.050c-0.42 1.248-0.48 2.851-0.183 4.907 0.407 2.803 1.597 5.689 3.297 7.991 2.57 3.471 6.285 5.968 10.578 6.938l0.121 0.023c1.855 0.411 4.125 0.521 5.28 0.255 1.399-0.321 2.556-0.955 3.52-1.927 0.99-0.989 1.687-2.271 1.948-3.705l0.006-0.043c0.14-0.763-0.005-1.348-0.464-1.869-0.271-0.307-0.409-0.376-3.891-1.936l-2.96-1.327h-0.507c-0.764 0-0.875 0.067-2.72 1.644l-1.549 1.324-0.359-0.199c-1.645-0.915-3.471-2.723-4.263-4.223l-0.219-0.413 1.329-1.573c0.831-0.984 1.381-1.683 1.469-1.867 0.165-0.345 0.224-0.931 0.131-1.304-0.048-0.191-2.155-4.96-2.76-6.249-0.194-0.421-0.524-0.752-0.932-0.943l-0.012-0.005c-0.467-0.224-0.855-0.267-1.449-0.16zM11.665 7.944c0.715 1.596 1.288 2.928 1.276 2.96-0.511 0.646-0.941 1.168-1.381 1.682l0.066-0.079c-0.793 0.951-1.347 1.66-1.433 1.84-0.123 0.257-0.14 0.36-0.14 0.832 0 0.535 0.001 0.541 0.251 1.040 1.037 2.079 3.332 4.371 5.467 5.457 0.756 0.385 1.315 0.419 1.959 0.116 0.167-0.079 0.859-0.632 1.803-1.44 0.841-0.721 1.561-1.312 1.597-1.312s1.369 0.583 2.963 1.293l2.896 1.293-0.032 0.213c-0.175 1.163-0.932 2.403-1.916 3.139-1.088 0.811-2.168 1.087-3.881 0.991-3.768-0.213-7.265-1.689-9.985-4.213-2.839-2.615-4.723-6.229-5.094-10.28l-0.005-0.062c-0.088-0.961-0.036-2.267 0.109-2.773 0.397-1.378 1.334-2.489 2.561-3.108l0.029-0.013c0.56-0.281 1.268-0.515 1.491-0.491 0.084 0.009 0.364 0.593 1.401 2.916z"></path>
</symbol>

<symbol id="phone-2" viewBox="0 0 24 24" fill="none">
<path d="M19.4102 13C19.1902 13 18.9602 12.93 18.7402 12.88C18.295 12.7805 17.8573 12.6501 17.4302 12.49C16.9663 12.3212 16.4563 12.33 15.9985 12.5146C15.5406 12.6992 15.1673 13.0466 14.9502 13.49L14.7302 13.95C13.759 13.3992 12.8618 12.7271 12.0602 11.95C11.283 11.1484 10.611 10.2512 10.0602 9.28L10.5202 9.07C10.9635 8.85292 11.311 8.47953 11.4956 8.02169C11.6802 7.56385 11.6889 7.05391 11.5202 6.59C11.3614 6.15903 11.2311 5.71808 11.1302 5.27C11.0802 5.05 11.0402 4.82 11.0102 4.6C10.8887 3.89562 10.5198 3.25774 9.96979 2.80124C9.41979 2.34474 8.72487 2.09961 8.01017 2.11H5.00017C4.57742 2.10945 4.15932 2.19825 3.77329 2.37058C3.38726 2.54292 3.04201 2.7949 2.76017 3.11C2.47249 3.43365 2.25829 3.81575 2.13228 4.23004C2.00626 4.64432 1.97143 5.08098 2.03017 5.51C2.57376 9.67214 4.47538 13.5387 7.44017 16.51C10.4115 19.4748 14.278 21.3764 18.4402 21.92C18.57 21.9299 18.7004 21.9299 18.8302 21.92C19.5676 21.9211 20.2796 21.6505 20.8302 21.16C21.1453 20.8782 21.3973 20.5329 21.5696 20.1469C21.7419 19.7609 21.8307 19.3428 21.8302 18.92V15.92C21.8248 15.229 21.581 14.5611 21.1401 14.0291C20.6992 13.4971 20.0881 13.1336 19.4102 13ZM19.9002 19C19.8998 19.1395 19.8703 19.2775 19.8135 19.4049C19.7566 19.5324 19.6738 19.6465 19.5702 19.74C19.4606 19.8399 19.3301 19.9141 19.1883 19.9573C19.0465 20.0006 18.8968 20.0117 18.7502 19.99C15.0184 19.5026 11.5504 17.802 8.88017 15.15C6.20764 12.4775 4.4922 8.99737 4.00017 5.25C3.97845 5.10333 3.98961 4.95367 4.03285 4.81185C4.07608 4.67003 4.15032 4.5396 4.25017 4.43C4.34479 4.32515 4.46055 4.24154 4.58982 4.18466C4.71909 4.12778 4.85894 4.09892 5.00017 4.1H8.00017C8.23133 4.09435 8.45731 4.16898 8.63964 4.3112C8.82196 4.45341 8.94937 4.65442 9.00017 4.88C9.00017 5.15 9.09017 5.43 9.15017 5.7C9.26575 6.22386 9.41949 6.73857 9.61017 7.24L8.21017 7.9C7.96954 8.01046 7.78253 8.21185 7.69017 8.46C7.59015 8.70346 7.59015 8.97654 7.69017 9.22C9.12937 12.3028 11.6074 14.7808 14.6902 16.22C14.9336 16.32 15.2067 16.32 15.4502 16.22C15.6983 16.1276 15.8997 15.9406 16.0102 15.7L16.6402 14.3C17.1561 14.4881 17.6839 14.6418 18.2202 14.76C18.4802 14.82 18.7602 14.87 19.0302 14.91C19.2558 14.9608 19.4568 15.0882 19.599 15.2705C19.7412 15.4529 19.8158 15.6788 19.8102 15.91L19.9002 19ZM14.0002 2C13.7702 2 13.5302 2 13.3002 2C13.035 2.02254 12.7896 2.14952 12.618 2.353C12.4464 2.55647 12.3626 2.81978 12.3852 3.085C12.4077 3.35022 12.5347 3.59562 12.7382 3.76721C12.9416 3.93881 13.205 4.02254 13.4702 4H14.0002C15.5915 4 17.1176 4.63214 18.2428 5.75736C19.368 6.88258 20.0002 8.4087 20.0002 10C20.0002 10.18 20.0002 10.35 20.0002 10.53C19.978 10.7938 20.0613 11.0556 20.2319 11.2581C20.4025 11.4606 20.6464 11.5871 20.9102 11.61H20.9902C21.2405 11.611 21.4821 11.5181 21.6673 11.3496C21.8524 11.1811 21.9676 10.9493 21.9902 10.7C21.9902 10.47 21.9902 10.23 21.9902 10C21.9902 7.88 21.1487 5.84668 19.6506 4.34668C18.1524 2.84667 16.1202 2.00265 14.0002 2ZM16.0002 10C16.0002 10.2652 16.1055 10.5196 16.2931 10.7071C16.4806 10.8946 16.735 11 17.0002 11C17.2654 11 17.5197 10.8946 17.7073 10.7071C17.8948 10.5196 18.0002 10.2652 18.0002 10C18.0002 8.93913 17.5787 7.92172 16.8286 7.17157C16.0785 6.42143 15.061 6 14.0002 6C13.735 6 13.4806 6.10536 13.2931 6.29289C13.1055 6.48043 13.0002 6.73478 13.0002 7C13.0002 7.26522 13.1055 7.51957 13.2931 7.70711C13.4806 7.89464 13.735 8 14.0002 8C14.5306 8 15.0393 8.21071 15.4144 8.58579C15.7895 8.96086 16.0002 9.46957 16.0002 10Z" fill="currentColor"/>
</symbol>

<symbol id="slide-size" viewBox="0 0 32 32">
<path fill="currentColor" d="M6.958 6.453c-1.573 0.234-3.011 1.41-3.491 2.853-0.27 0.813-0.266 0.675-0.266 6.694s-0.005 5.882 0.266 6.694c0.376 1.13 1.509 2.262 2.638 2.638 0.83 0.277 0.411 0.266 9.894 0.266s9.064 0.011 9.894-0.266c1.13-0.376 2.262-1.509 2.638-2.638 0.27-0.813 0.266-0.675 0.266-6.694 0-4.765-0.013-5.683-0.078-6-0.366-1.725-1.474-2.928-3.173-3.45l-0.4-0.123-8.96-0.006c-4.928-0.005-9.082 0.010-9.229 0.032zM25.341 8.165c0.795 0.31 1.442 0.968 1.709 1.746l0.123 0.357v11.466l-0.123 0.357c-0.256 0.708-0.759 1.275-1.403 1.608l-0.016 0.008c-0.64 0.31-0.134 0.294-9.613 0.294-6.109 0-8.79-0.018-8.989-0.059-0.957-0.198-1.77-0.938-2.102-1.914-0.094-0.28-0.099-0.566-0.099-6.027s0.005-5.747 0.099-6.027c0.334-0.997 1.171-1.74 2.203-1.933l0.018-0.003c0.074-0.013 4.117-0.021 8.986-0.016l8.854 0.006 0.354 0.138zM18.005 9.722c-0.546 0.312-0.522 1.125 0.042 1.392 0.141 0.066 0.349 0.086 0.893 0.086h0.71l-1.394 1.4c-1.498 1.506-1.518 1.533-1.432 1.987 0.045 0.245 0.344 0.544 0.589 0.589 0.454 0.086 0.482 0.066 1.987-1.432l1.4-1.394v0.71c0 0.797 0.054 0.99 0.339 1.194 0.132 0.079 0.291 0.125 0.461 0.125s0.329-0.046 0.465-0.127l-0.004 0.002c0.33-0.235 0.339-0.296 0.339-2.254 0-2.011-0.005-2.038-0.398-2.269l-0.224-0.131-1.782 0.002c-1.746 0-1.786 0.003-1.99 0.12zM14.053 16.888c-0.088 0.045-0.765 0.686-1.506 1.424l-1.347 1.341v-0.712c0-0.84-0.056-1.008-0.398-1.21-0.114-0.077-0.254-0.124-0.406-0.124-0.145 0-0.28 0.042-0.394 0.116l0.003-0.002c-0.4 0.229-0.405 0.259-0.405 2.269 0 1.968 0.010 2.027 0.339 2.264 0.165 0.117 0.202 0.12 1.995 0.134 1.613 0.013 1.85 0.005 2.014-0.074 0.264-0.13 0.443-0.397 0.443-0.706 0-0.288-0.155-0.54-0.387-0.676l-0.004-0.002c-0.208-0.122-0.275-0.131-0.938-0.131h-0.715l1.37-1.373c0.752-0.755 1.394-1.442 1.426-1.525 0.253-0.674-0.464-1.341-1.091-1.014z"></path>
</symbol>

<symbol id="twitter" viewBox="0 0 32 32">
<path fill="currentColor" d="M20.791 5.871c-0.576 0.084-0.979 0.215-1.564 0.504-1.386 0.682-2.394 1.949-2.709 3.47l-0.006 0.032c-0.096 0.465-0.112 1.432-0.032 1.857 0.021 0.082 0.034 0.177 0.034 0.274 0 0.010-0 0.020-0 0.030l0-0.002c-0.035 0.035-1.133-0.089-1.761-0.199-3.116-0.541-6.195-2.259-8.223-4.587-0.417-0.479-0.424-0.483-0.513-0.373-0.093 0.153-0.179 0.331-0.247 0.516l-0.007 0.021c-0.625 1.62-0.429 3.327 0.548 4.771 0.221 0.325 0.765 0.904 1.103 1.169l0.187 0.147-0.373-0.031c-0.437-0.036-0.912-0.165-1.464-0.397-0.115-0.056-0.252-0.107-0.393-0.147l-0.017-0.004c-0.033 0.033 0.092 0.993 0.168 1.281 0.318 1.153 0.989 2.119 1.886 2.803l0.013 0.009c0.413 0.307 1.239 0.712 1.637 0.804 0.153 0.035 0.277 0.081 0.277 0.103 0 0.084-0.915 0.171-1.535 0.145l-0.641-0.027 0.068 0.195c0.469 1.329 1.687 2.52 3.067 2.999 0.389 0.136 0.972 0.257 1.228 0.257 0.115 0 0.221 0.023 0.239 0.051 0.053 0.088-0.767 0.625-1.572 1.032-0.761 0.4-1.644 0.72-2.574 0.914l-0.066 0.012c-0.637 0.135-0.792 0.147-1.907 0.149-0.667 0.001-1.213 0.005-1.213 0.009 0 0.029 0.859 0.508 1.339 0.747 1.439 0.717 3.061 1.199 4.768 1.413 0.765 0.097 2.673 0.083 3.511-0.027 2.053-0.267 4.201-1.009 5.743-1.987 2.817-1.784 4.948-4.544 6.027-7.807 0.439-1.229 0.705-2.647 0.73-4.124l0-0.012 0.031-1.068 0.193-0.139c0.651-0.468 1.584-1.424 2.101-2.155l0.204-0.287-0.363 0.139c-0.779 0.296-1.968 0.607-2.311 0.601l-0.133-0.001 0.132-0.091c0.583-0.4 1.176-1.039 1.556-1.673 0.201-0.337 0.444-0.891 0.405-0.928-0.009-0.009-0.268 0.108-0.576 0.263-0.64 0.32-1.417 0.609-2.089 0.777l-0.465 0.117-0.4-0.337c-1.165-0.976-2.636-1.417-4.039-1.212z"></path>
</symbol>

<symbol id="arrow-right-circle" viewBox="0 0 20 20" fill="none">
<path fill-rule="evenodd" clip-rule="evenodd" d="M20 10C20 15.52 15.51 20 10 20L9.72023 19.9962C4.32942 19.8478 0 15.4264 0 10C0 4.49 4.48 0 10 0C15.51 0 20 4.49 20 10ZM8.02 6C7.73 6.3 7.73 6.77 8.03 7.06L10.98 10L8.03 12.94C7.73 13.23 7.73 13.71 8.02 14C8.32 14.3 8.79 14.3 9.08 14L12.57 10.53C12.71 10.39 12.79 10.2 12.79 10C12.79 9.8 12.71 9.61 12.57 9.47L9.08 6C8.94 5.85 8.75 5.78 8.56 5.78C8.36 5.78 8.17 5.85 8.02 6Z" fill="currentColor"/>
</symbol>

<symbol id="car" viewBox="0 0 25 24" fill="none">
<path d="M2.34863 11.25H23.3486M21.8486 17.25V19.5C21.8486 19.6989 21.7696 19.8897 21.629 20.0303C21.4883 20.171 21.2975 20.25 21.0986 20.25H18.8486C18.6497 20.25 18.459 20.171 18.3183 20.0303C18.1776 19.8897 18.0986 19.6989 18.0986 19.5V17.25M21.8486 17.25H3.84863M21.8486 17.25V11.25L19.0455 4.95C18.9873 4.81672 18.8917 4.70322 18.7702 4.62333C18.6487 4.54343 18.5066 4.50058 18.3611 4.5H7.33613C7.19071 4.50058 7.0486 4.54343 6.92709 4.62333C6.80558 4.70322 6.70992 4.81672 6.65176 4.95L3.84863 11.25V17.25M7.59863 17.25V19.5C7.59863 19.6989 7.51962 19.8897 7.37896 20.0303C7.23831 20.171 7.04755 20.25 6.84863 20.25H4.59863C4.39972 20.25 4.20896 20.171 4.0683 20.0303C3.92765 19.8897 3.84863 19.6989 3.84863 19.5V17.25M6.84912 14.25H8.34912M17.3486 14.25H18.8486" stroke="currentColor" stroke-width="1.60606" stroke-linecap="round" stroke-linejoin="round"/>
</symbol>

<symbol id="globe" viewBox="0 0 24 24" fill="none">
<path d="M11.8 1C8.93566 1 6.18864 2.13785 4.16325 4.16325C2.13785 6.18864 1 8.93566 1 11.8C1 14.6643 2.13785 17.4114 4.16325 19.4368C6.18864 21.4621 8.93566 22.6 11.8 22.6C14.6643 22.6 17.4114 21.4621 19.4368 19.4368C21.4621 17.4114 22.6 14.6643 22.6 11.8C22.6 8.93566 21.4621 6.18864 19.4368 4.16325C17.4114 2.13785 14.6643 1 11.8 1ZM2.332 12.616H5.344C5.392 13.708 5.5444 14.7928 5.8 15.856H3.208C2.72465 14.8371 2.42795 13.7397 2.332 12.616ZM12.616 6.136V2.428C13.7724 2.86747 14.7227 3.72355 15.28 4.828C15.526 5.2444 15.7432 5.6776 15.928 6.124L12.616 6.136ZM16.48 7.756C16.7584 8.8156 16.924 9.9016 16.972 10.996H12.616V7.756H16.48ZM10.984 2.428V6.136H7.672C7.85711 5.68924 8.07366 5.25615 8.32 4.84C8.87496 3.73102 9.82551 2.87039 10.984 2.428ZM10.984 7.756V10.996H6.64C6.688 9.9016 6.8536 8.8156 7.132 7.756H10.984ZM5.344 10.984H2.332C2.42795 9.86031 2.72465 8.76294 3.208 7.744H5.8C5.54391 8.80678 5.3912 9.89183 5.344 10.984ZM6.64 12.616H10.984V15.856H7.132C6.85364 14.7965 6.68872 13.7104 6.64 12.616ZM10.996 17.416V21.124C9.83958 20.6845 8.88934 19.8285 8.332 18.724C8.08566 18.3079 7.86911 17.8748 7.684 17.428L10.996 17.416ZM12.616 21.124V17.476H15.928C15.7429 17.9228 15.5263 18.3559 15.28 18.772C14.7227 19.8765 13.7724 20.7325 12.616 21.172V21.124ZM12.616 15.796V12.556H16.96C16.9113 13.6504 16.7464 14.7365 16.468 15.796H12.616ZM18.268 12.556H21.28C21.184 13.6797 20.8874 14.7771 20.404 15.796H17.8C18.052 14.752 18.2044 13.6876 18.256 12.616L18.268 12.556ZM18.268 10.936C18.213 9.86357 18.0563 8.79879 17.8 7.756H20.392C20.8756 8.776 21.172 9.8728 21.268 10.996L18.268 10.936ZM19.468 6.136H17.32C16.9313 5.04436 16.368 4.02307 15.652 3.112C17.1453 3.7823 18.4423 4.82326 19.42 6.136H19.468ZM7.948 3.112C7.23198 4.02307 6.66865 5.04436 6.28 6.136H4.18C5.15767 4.82326 6.45474 3.7823 7.948 3.112ZM4.168 17.512H6.28C6.66865 18.6036 7.23198 19.6249 7.948 20.536C6.45061 19.8556 5.15314 18.8019 4.18 17.476L4.168 17.512ZM15.64 20.536C16.356 19.6249 16.9193 18.6036 17.308 17.512H19.42C18.4364 18.8072 17.1398 19.8312 15.652 20.488L15.64 20.536Z" fill="currentColor"/>
</symbol>

<symbol id="location" viewBox="0 0 24 24" fill="none">
<path d="M12 13.5C11.2583 13.5 10.5333 13.2801 9.91661 12.868C9.29993 12.456 8.81928 11.8703 8.53545 11.1851C8.25162 10.4998 8.17736 9.74584 8.32206 9.01841C8.46675 8.29098 8.8239 7.6228 9.34835 7.09835C9.8728 6.5739 10.541 6.21675 11.2684 6.07206C11.9958 5.92736 12.7498 6.00162 13.4351 6.28545C14.1203 6.56928 14.706 7.04993 15.118 7.66661C15.5301 8.2833 15.75 9.00832 15.75 9.75C15.7488 10.7442 15.3533 11.6973 14.6503 12.4003C13.9473 13.1033 12.9942 13.4988 12 13.5ZM12 7.5C11.555 7.5 11.12 7.63196 10.75 7.8792C10.38 8.12643 10.0916 8.47783 9.92127 8.88896C9.75098 9.3001 9.70642 9.7525 9.79323 10.189C9.88005 10.6254 10.0943 11.0263 10.409 11.341C10.7237 11.6557 11.1246 11.87 11.561 11.9568C11.9975 12.0436 12.4499 11.999 12.861 11.8287C13.2722 11.6584 13.6236 11.37 13.8708 11C14.118 10.63 14.25 10.195 14.25 9.75C14.2494 9.15345 14.0122 8.5815 13.5903 8.15967C13.1685 7.73784 12.5966 7.5006 12 7.5Z" fill="currentColor"/>
<path d="M12 22.5L5.67301 15.0382C5.58509 14.9262 5.49809 14.8135 5.41201 14.7C4.33124 13.2763 3.74739 11.5374 3.75001 9.75C3.75001 7.56196 4.6192 5.46354 6.16638 3.91637C7.71355 2.36919 9.81197 1.5 12 1.5C14.188 1.5 16.2865 2.36919 17.8336 3.91637C19.3808 5.46354 20.25 7.56196 20.25 9.75C20.2526 11.5366 19.669 13.2747 18.5888 14.6978L18.588 14.7C18.588 14.7 18.363 14.9955 18.3293 15.0353L12 22.5ZM6.60976 13.7963C6.60976 13.7963 6.78451 14.0272 6.82426 14.0767L12 20.181L17.1825 14.0685C17.2155 14.0272 17.3918 13.794 17.3918 13.794C18.2746 12.6308 18.7517 11.2103 18.75 9.75C18.75 7.95979 18.0388 6.2429 16.773 4.97703C15.5071 3.71116 13.7902 3 12 3C10.2098 3 8.49291 3.71116 7.22704 4.97703C5.96117 6.2429 5.25001 7.95979 5.25001 9.75C5.24844 11.2112 5.72609 12.6326 6.60976 13.7963Z" fill="currentColor"/>
</symbol>

<symbol id="open-mail" viewBox="0 0 24 24" fill="none">
<path d="M20.21 8.82003L14 2.78003C13.474 2.27988 12.7759 2.00098 12.05 2.00098C11.3241 2.00098 10.626 2.27988 10.1 2.78003L3.89 8.78003C3.61408 9.02089 3.39216 9.31733 3.23879 9.64993C3.08541 9.98253 3.00404 10.3438 3 10.71V19.29C3.01054 20.0176 3.30904 20.7114 3.83012 21.2194C4.35119 21.7273 5.05235 22.008 5.78 22H18.22C18.9476 22.008 19.6488 21.7273 20.1699 21.2194C20.691 20.7114 20.9895 20.0176 21 19.29V10.71C20.9992 10.3585 20.929 10.0106 20.7935 9.68625C20.6579 9.36191 20.4596 9.06754 20.21 8.82003ZM11.44 4.22003C11.593 4.08019 11.7927 4.00264 12 4.00264C12.2073 4.00264 12.407 4.08019 12.56 4.22003L18 9.50003L12.53 14.78C12.377 14.9199 12.1773 14.9974 11.97 14.9974C11.7627 14.9974 11.563 14.9199 11.41 14.78L6 9.50003L11.44 4.22003ZM19 19.29C18.9871 19.4863 18.8987 19.67 18.7532 19.8024C18.6078 19.9348 18.4166 20.0056 18.22 20H5.78C5.58338 20.0056 5.39225 19.9348 5.24678 19.8024C5.10132 19.67 5.01286 19.4863 5 19.29V11.35L9.05 15.25L7.39 16.85C7.20375 17.0374 7.09921 17.2908 7.09921 17.555C7.09921 17.8192 7.20375 18.0727 7.39 18.26C7.48295 18.3575 7.59463 18.4352 7.71836 18.4885C7.84208 18.5418 7.9753 18.5695 8.11 18.57C8.36747 18.569 8.61462 18.4687 8.8 18.29L10.57 16.59C11.0096 16.8587 11.5148 17.0008 12.03 17.0008C12.5452 17.0008 13.0504 16.8587 13.49 16.59L15.26 18.29C15.4454 18.4687 15.6925 18.569 15.95 18.57C16.0847 18.5695 16.2179 18.5418 16.3416 18.4885C16.4654 18.4352 16.5771 18.3575 16.67 18.26C16.8563 18.0727 16.9608 17.8192 16.9608 17.555C16.9608 17.2908 16.8563 17.0374 16.67 16.85L15 15.25L19 11.35V19.29Z" fill="currentColor"/>
</symbol>

<symbol id="grid" viewBox="0 0 24 24" fill="none">
<path d="M21 2H3C2.73478 2 2.48043 2.10536 2.29289 2.29289C2.10536 2.48043 2 2.73478 2 3V21C2 21.2652 2.10536 21.5196 2.29289 21.7071C2.48043 21.8946 2.73478 22 3 22H21C21.2652 22 21.5196 21.8946 21.7071 21.7071C21.8946 21.5196 22 21.2652 22 21V3C22 2.73478 21.8946 2.48043 21.7071 2.29289C21.5196 2.10536 21.2652 2 21 2ZM8 20H4V16H8V20ZM8 14H4V10H8V14ZM8 8H4V4H8V8ZM14 20H10V16H14V20ZM14 14H10V10H14V14ZM14 8H10V4H14V8ZM20 20H16V16H20V20ZM20 14H16V10H20V14ZM20 8H16V4H20V8Z" fill="currentColor"/>
</symbol>

<symbol id="cross-icon" viewBox="0 0 12 11">
<path d="M6.94004 5.50012L11.14 1.30679C11.2656 1.18125 11.3361 1.01099 11.3361 0.833457C11.3361 0.655923 11.2656 0.485659 11.14 0.360124C11.0145 0.234588 10.8442 0.164062 10.6667 0.164062C10.4892 0.164062 10.3189 0.234588 10.1934 0.360124L6.00004 4.56012L1.80671 0.360124C1.68117 0.234588 1.51091 0.164063 1.33337 0.164063C1.15584 0.164063 0.985576 0.234588 0.860041 0.360124C0.734505 0.485659 0.66398 0.655923 0.66398 0.833457C0.66398 1.01099 0.734505 1.18125 0.860041 1.30679L5.06004 5.50012L0.860041 9.69346C0.797555 9.75543 0.747959 9.82917 0.714113 9.91041C0.680267 9.99164 0.662842 10.0788 0.662842 10.1668C0.662842 10.2548 0.680267 10.3419 0.714113 10.4232C0.747959 10.5044 0.797555 10.5781 0.860041 10.6401C0.922016 10.7026 0.99575 10.7522 1.07699 10.7861C1.15823 10.8199 1.24537 10.8373 1.33337 10.8373C1.42138 10.8373 1.50852 10.8199 1.58976 10.7861C1.671 10.7522 1.74473 10.7026 1.80671 10.6401L6.00004 6.44012L10.1934 10.6401C10.2553 10.7026 10.3291 10.7522 10.4103 10.7861C10.4916 10.8199 10.5787 10.8373 10.6667 10.8373C10.7547 10.8373 10.8419 10.8199 10.9231 10.7861C11.0043 10.7522 11.0781 10.7026 11.14 10.6401C11.2025 10.5781 11.2521 10.5044 11.286 10.4232C11.3198 10.3419 11.3372 10.2548 11.3372 10.1668C11.3372 10.0788 11.3198 9.99164 11.286 9.91041C11.2521 9.82917 11.2025 9.75543 11.14 9.69346L6.94004 5.50012Z" fill="currentColor"/>
</symbol>

</defs>
</svg>
