<svg aria-hidden="true" style="position: absolute; width: 0; height: 0; overflow: hidden;" version="1.1" xmlns="http://www.w3.org/2000/svg" xmlns:xlink="http://www.w3.org/1999/xlink">
<defs>
<symbol id="arrow-down" viewBox="0 0 32 32">
<path d="M6.656 10.671c-0.307 0.137-0.589 0.562-0.589 0.888 0 0.389 0.108 0.506 4.799 5.193 3.188 3.187 4.602 4.566 4.736 4.621 0.118 0.048 0.255 0.076 0.398 0.076s0.28-0.028 0.405-0.078l-0.007 0.003c0.23-0.095 9.167-8.996 9.354-9.316 0.239-0.411 0.21-0.794-0.090-1.134-0.174-0.202-0.43-0.328-0.715-0.328-0.14 0-0.273 0.030-0.392 0.085l0.006-0.002c-0.133 0.055-1.446 1.334-4.376 4.261l-4.186 4.183-4.186-4.183c-2.93-2.927-4.243-4.206-4.376-4.261-0.119-0.047-0.256-0.074-0.4-0.074-0.137 0-0.269 0.025-0.39 0.070l0.008-0.003z"></path>
</symbol>

<symbol id="line-arrow" viewBox="0 0 21 10" fill="none">
<path d="M20.2558 4.41074L16.2742 0.429072C16.0358 0.190815 15.6775 0.119553 15.3661 0.248507C15.0548 0.37746 14.8517 0.681242 14.8517 1.01824V3.54157C14.8517 3.65663 14.7584 3.7499 14.6433 3.7499H1.75C1.05964 3.7499 0.5 4.30955 0.5 4.99991C0.5 5.69026 1.05964 6.24991 1.75 6.24991H14.6433C14.7584 6.24991 14.8517 6.34318 14.8517 6.45824V8.98157C14.8517 9.31857 15.0548 9.62235 15.3661 9.7513C15.6775 9.88026 16.0358 9.809 16.2742 9.57074L20.2558 5.58907C20.5812 5.26366 20.5812 4.73616 20.2558 4.41074Z" fill="white"/>
</symbol>

<symbol id="arrow-back" viewBox="0 0 24 24" fill="none">
<path d="M14.9998 19.9201L8.47984 13.4001C7.70984 12.6301 7.70984 11.3701 8.47984 10.6001L14.9998 4.08008" stroke="currentColor" stroke-width="1.5" stroke-miterlimit="10" stroke-linecap="round" stroke-linejoin="round"/>
</symbol>

<symbol id="bed" viewBox="0 0 32 32">
<path fill="currentColor" d="M8.507 5.371c-1.539 0.213-2.838 1.453-3.117 2.971-0.035 0.198-0.058 1.229-0.058 2.734 0 2.034-0.011 2.416-0.074 2.416-0.215 0.072-0.398 0.153-0.571 0.249l0.018-0.009c-0.872 0.445-1.534 1.196-1.854 2.108l-0.008 0.026-0.15 0.426-0.014 5.403c-0.010 3.595 0.003 5.47 0.040 5.606 0.082 0.302 0.453 0.626 0.774 0.674 0.051 0.009 0.11 0.015 0.17 0.015 0.477 0 0.875-0.336 0.971-0.784l0.001-0.007c0.034-0.16 0.058-0.877 0.058-1.736v-1.464h22.614v1.507c0 0.922 0.022 1.589 0.058 1.72 0.163 0.597 0.794 0.926 1.336 0.698 0.24-0.102 0.515-0.397 0.581-0.621 0.032-0.115 0.051-2.15 0.051-5.437-0.002-5.92 0.016-5.651-0.406-6.506-0.351-0.706-0.908-1.265-1.591-1.61l-0.020-0.009c-0.161-0.089-0.351-0.174-0.548-0.242l-0.026-0.008c-0.062 0-0.074-0.386-0.075-2.44 0-2.258-0.008-2.472-0.107-2.886-0.258-1.070-0.962-1.939-1.899-2.414l-0.021-0.010c-0.888-0.434-0.387-0.41-8.65-0.402-4.027 0.005-7.394 0.019-7.482 0.030zM23.68 7.498c0.363 0.155 0.647 0.435 0.803 0.786l0.004 0.010 0.154 0.32v4.72h-0.987c-0.918 0-0.986-0.006-0.986-0.096 0-0.434-0.432-0.995-0.88-1.149-0.384-0.13-3.19-0.13-3.574 0-0.448 0.154-0.88 0.715-0.88 1.149 0 0.091-0.078 0.096-1.333 0.096s-1.333-0.005-1.333-0.096c0-0.434-0.432-0.995-0.88-1.149-0.384-0.13-3.19-0.13-3.574 0-0.448 0.154-0.88 0.715-0.88 1.149 0 0.090-0.067 0.096-0.986 0.096h-0.987v-2.36l0.002-2.36 0.136-0.293c0.205-0.443 0.486-0.706 0.955-0.89 0.12-0.046 2.019-0.062 7.547-0.066l7.387-0.003 0.293 0.136zM26.347 15.498c0.362 0.156 0.646 0.436 0.803 0.785l0.004 0.010 0.154 0.32v5.414h-22.614l0.002-2.707v-2.707l0.136-0.293c0.206-0.443 0.488-0.706 0.957-0.89 0.12-0.046 2.64-0.062 10.213-0.066l10.053-0.003 0.294 0.136z"></path>
</symbol>

<symbol id="bathroom" viewBox="0 0 20 20" fill="none">
<path d="M2.5 10.8333V13.3333C2.5 14.2174 2.85119 15.0652 3.47631 15.6904C4.10143 16.3155 4.94928 16.6667 5.83333 16.6667H14.1667C15.0507 16.6667 15.8986 16.3155 16.5237 15.6904C17.1488 15.0652 17.5 14.2174 17.5 13.3333V11.3333C17.5 11.2007 17.4473 11.0735 17.3536 10.9798C17.2598 10.886 17.1326 10.8333 17 10.8333H2.5ZM2.5 10.8333V5.83333C2.5 4.94928 2.85119 4.10143 3.47631 3.47631C4.10143 2.85119 4.94928 2.5 5.83333 2.5H10M6.66667 16.6667L5.83333 18.3333M13.3333 16.6667L14.1667 18.3333" stroke="currentColor" stroke-width="1.5" stroke-linecap="round" stroke-linejoin="round"/>
<path d="M7.16667 6.66667H12.8333C13.1092 6.66667 13.33 6.44333 13.3 6.16833C13.1783 5.0625 12.6142 2.5 10 2.5C7.38583 2.5 6.82167 5.0625 6.7 6.16833C6.67 6.44333 6.89083 6.66667 7.16667 6.66667Z" stroke="currentColor" stroke-width="1.5" stroke-linecap="round" stroke-linejoin="round"/>
</symbol>

<symbol id="facebook" viewBox="0 0 32 32">
<path fill="currentColor" d="M18.155 4.451c-2.447 0.38-3.972 1.984-4.285 4.508-0.031 0.248-0.056 1.239-0.056 2.2v1.748h-3.627v4.107h3.627v10.613h4.373v-10.613h3.621l0.029-0.173c0.035-0.204 0.509-3.835 0.509-3.893 0-0.021-0.937-0.040-2.084-0.040h-2.084l0.035-3.443 0.179-0.364c0.141-0.287 0.232-0.396 0.427-0.52 0.464-0.295 0.652-0.324 2.235-0.353l1.453-0.027v-3.657l-0.2-0.031c-0.857-0.135-3.439-0.172-4.152-0.061z"></path>
</symbol>

<symbol id="house-single" viewBox="0 0 32 32">
<path d="M15.592 3.412c-0.323 0.068-0.699 0.275-1.033 0.569-1.505 1.322-10.081 9.173-10.175 9.316-0.068 0.102-0.176 0.313-0.24 0.471l-0.117 0.286-0.029 11.974h-1.121c-0.995 0-1.143 0.011-1.319 0.101-0.244 0.124-0.356 0.246-0.463 0.499-0.212 0.508 0.005 1.028 0.532 1.272 0.206 0.095 0.703 0.099 14.373 0.099s14.167-0.004 14.373-0.099c0.527-0.244 0.744-0.764 0.532-1.272-0.106-0.253-0.218-0.375-0.463-0.499-0.176-0.090-0.324-0.101-1.319-0.101h-1.121l-0.015-5.987-0.015-5.987-0.117-0.286c-0.076-0.183-0.156-0.337-0.248-0.484l0.008 0.014c-0.092-0.14-8.383-7.731-10.175-9.317-0.544-0.481-1.241-0.695-1.849-0.567zM21.052 9.92l4.967 4.507 0.004 5.8 0.004 5.8h-6.027v-3.064c0-2.065-0.020-3.156-0.060-3.347-0.133-0.621-0.537-1.127-1.079-1.398l-0.012-0.005-0.316-0.16h-5.066l-0.306 0.151c-0.557 0.279-0.964 0.788-1.099 1.399l-0.002 0.014c-0.040 0.191-0.060 1.281-0.060 3.347v3.064h-6.027l0.007-11.6 4.97-4.517c2.733-2.484 5.007-4.513 5.052-4.507s2.318 2.039 5.049 4.517zM18.014 23l-0.014 3h-4l-0.028-6h4.055l-0.014 3z"></path>
</symbol>

<symbol fill="none" viewBox="0 0 44 44" id="house-logo" xmlns="http://www.w3.org/2000/svg"><path d="M37.125 37.125V19.852a1.428 1.428 0 0 0-.447-1.015L22.928 6.342a1.375 1.375 0 0 0-1.856 0L7.322 18.837a1.426 1.426 0 0 0-.447 1.015v17.273" stroke="#4A566E" stroke-width="2.75" stroke-linecap="round" stroke-linejoin="round"/><path d="M26.125 37.125V27.5a1.375 1.375 0 0 0-1.375-1.375h-5.5a1.375 1.375 0 0 0-1.375 1.375v9.625" fill="#EFA163"/><path d="M26.125 37.125V27.5a1.375 1.375 0 0 0-1.375-1.375h-5.5a1.375 1.375 0 0 0-1.375 1.375v9.625M2.75 37.125h38.5" stroke="#4A566E" stroke-width="2.75" stroke-linecap="round" stroke-linejoin="round"/></symbol>

<symbol fill="none" viewBox="0 0 31 31" id="house-logo-white" xmlns="http://www.w3.org/2000/svg"><path d="M26.156 26.156v-12.17a1.003 1.003 0 0 0-.315-.714l-9.687-8.804a.969.969 0 0 0-1.308 0L5.16 13.272a1.004 1.004 0 0 0-.315.714v12.17" stroke="#fff" stroke-width="2" stroke-linecap="round" stroke-linejoin="round"/><path d="M18.406 26.156v-6.781a.969.969 0 0 0-.968-.969h-3.875a.969.969 0 0 0-.97.969v6.781" fill="#EFA163"/><path d="M18.406 26.156v-6.781a.969.969 0 0 0-.968-.969h-3.875a.969.969 0 0 0-.97.969v6.781M1.938 26.156h27.125" stroke="#fff" stroke-width="2" stroke-linecap="round" stroke-linejoin="round"/></symbol>

<symbol id="instagram" viewBox="0 0 32 32">
<path fill="currentColor" d="M8.96 3.012c-2.698 0.462-4.859 2.363-5.687 4.87l-0.015 0.051c-0.364 1.12-0.352 0.832-0.352 8.040 0 6.088 0.007 6.543 0.099 7.064 0.476 2.7 2.343 4.86 4.931 5.705 1.1 0.36 0.889 0.351 8.064 0.351 6.063 0 6.516-0.007 7.037-0.099 2.7-0.476 4.86-2.343 5.705-4.931 0.36-1.1 0.351-0.889 0.351-8.064 0-6.063-0.007-6.516-0.099-7.037-0.313-1.773-1.223-3.335-2.579-4.425-0.937-0.775-2.093-1.316-3.362-1.52l-0.040-0.005c-0.405-0.067-1.496-0.077-7.067-0.073-5.048 0.004-6.68 0.021-6.987 0.073zM23.067 5.375c0.917 0.259 1.702 0.738 2.321 1.379l0.001 0.001c0.527 0.549 0.884 1.132 1.127 1.832 0.249 0.717 0.257 0.924 0.257 7.413s-0.008 6.696-0.257 7.413c-0.49 1.369-1.512 2.443-2.811 2.992l-0.033 0.012c-0.875 0.349-0.412 0.329-7.672 0.329-6.112 0-6.613-0.007-6.952-0.093-0.873-0.215-1.627-0.637-2.236-1.212l0.002 0.002c-0.674-0.628-1.176-1.433-1.433-2.341l-0.009-0.036-0.12-0.427v-13.28l0.12-0.427c0.152-0.533 0.48-1.227 0.783-1.649 0.265-0.369 0.849-0.947 1.204-1.187 0.601-0.408 1.412-0.725 2.083-0.813 0.189-0.025 3.236-0.041 6.771-0.037l6.427 0.008 0.427 0.12zM14.752 9.259c-2.053 0.371-3.948 1.803-4.883 3.687-0.449 0.857-0.713 1.872-0.713 2.949 0 0.037 0 0.074 0.001 0.111l-0-0.006c0 1.875 0.675 3.495 2.011 4.832 1.336 1.335 2.956 2.009 4.832 2.009s3.496-0.675 4.832-2.009c0.718-0.705 1.279-1.568 1.626-2.533l0.015-0.047c0.238-0.671 0.375-1.446 0.375-2.252s-0.137-1.581-0.39-2.301l0.015 0.049c-0.831-2.328-2.88-4.076-5.267-4.492-0.592-0.103-1.876-0.101-2.455 0.003zM17.217 11.676c1.509 0.454 2.671 1.623 3.107 3.104l0.008 0.032c0.175 0.603 0.173 1.776-0.001 2.385-0.748 2.589-3.528 3.96-6.012 2.965-1.281-0.513-2.309-1.681-2.677-3.043-0.131-0.487-0.131-1.755 0-2.24 0.461-1.648 1.774-2.904 3.421-3.277l0.031-0.006c0.508-0.108 1.62-0.067 2.124 0.079z"></path>
</symbol>

<symbol id="linkedin" viewBox="0 0 32 32">
<path fill="currentColor" d="M5.84 4.075c-0.629 0.156-1.312 0.688-1.568 1.219-0.284 0.592-0.271 0.057-0.271 10.707s-0.013 10.115 0.271 10.707c0.156 0.325 0.696 0.865 1.021 1.021 0.592 0.284 0.057 0.271 10.707 0.271s10.115 0.013 10.707-0.271c0.325-0.156 0.865-0.696 1.021-1.021 0.284-0.592 0.271-0.057 0.271-10.707s0.013-10.115-0.271-10.707c-0.264-0.549-0.989-1.096-1.637-1.233-0.427-0.091-19.883-0.076-20.251 0.015zM10.307 7.453c1.911 0.893 1.521 3.689-0.567 4.073-0.92 0.169-1.872-0.339-2.289-1.22-0.159-0.336-0.171-0.399-0.168-0.92 0.003-0.488 0.020-0.599 0.143-0.865 0.153-0.333 0.537-0.777 0.827-0.956 0.326-0.192 0.719-0.305 1.138-0.305 0.332 0 0.647 0.071 0.931 0.199l-0.014-0.006zM21.504 13.583c1.254 0.451 2.224 1.421 2.668 2.643l0.010 0.031 0.165 0.464 0.015 3.853 0.016 3.853h-3.575l-0.029-6.8-0.143-0.304c-0.191-0.388-0.492-0.697-0.861-0.893l-0.011-0.005c-0.225-0.111-0.343-0.131-0.772-0.131-0.46 0-0.532 0.015-0.789 0.156-0.373 0.217-0.667 0.535-0.851 0.915l-0.005 0.013-0.141 0.303-0.016 3.373-0.015 3.373h-3.569v-10.827h3.573v0.693c0 0.381 0.017 0.693 0.040 0.692 0.023 0 0.109-0.099 0.193-0.217 0.347-0.491 1.224-1.063 1.96-1.28 0.271-0.080 0.475-0.096 1.007-0.084 0.58 0.015 0.727 0.037 1.131 0.179zM11.2 19.013v5.413h-3.573v-10.827h3.573v5.413z"></path>
</symbol>

<symbol id="phone" viewBox="0 0 32 32">
<path fill="currentColor" d="M9.787 3.072c-1.11 0.217-2.092 0.656-2.937 1.271l0.021-0.015c-1.137 0.854-2.003 2.012-2.482 3.355l-0.016 0.050c-0.42 1.248-0.48 2.851-0.183 4.907 0.407 2.803 1.597 5.689 3.297 7.991 2.57 3.471 6.285 5.968 10.578 6.938l0.121 0.023c1.855 0.411 4.125 0.521 5.28 0.255 1.399-0.321 2.556-0.955 3.52-1.927 0.99-0.989 1.687-2.271 1.948-3.705l0.006-0.043c0.14-0.763-0.005-1.348-0.464-1.869-0.271-0.307-0.409-0.376-3.891-1.936l-2.96-1.327h-0.507c-0.764 0-0.875 0.067-2.72 1.644l-1.549 1.324-0.359-0.199c-1.645-0.915-3.471-2.723-4.263-4.223l-0.219-0.413 1.329-1.573c0.831-0.984 1.381-1.683 1.469-1.867 0.165-0.345 0.224-0.931 0.131-1.304-0.048-0.191-2.155-4.96-2.76-6.249-0.194-0.421-0.524-0.752-0.932-0.943l-0.012-0.005c-0.467-0.224-0.855-0.267-1.449-0.16zM11.665 7.944c0.715 1.596 1.288 2.928 1.276 2.96-0.511 0.646-0.941 1.168-1.381 1.682l0.066-0.079c-0.793 0.951-1.347 1.66-1.433 1.84-0.123 0.257-0.14 0.36-0.14 0.832 0 0.535 0.001 0.541 0.251 1.040 1.037 2.079 3.332 4.371 5.467 5.457 0.756 0.385 1.315 0.419 1.959 0.116 0.167-0.079 0.859-0.632 1.803-1.44 0.841-0.721 1.561-1.312 1.597-1.312s1.369 0.583 2.963 1.293l2.896 1.293-0.032 0.213c-0.175 1.163-0.932 2.403-1.916 3.139-1.088 0.811-2.168 1.087-3.881 0.991-3.768-0.213-7.265-1.689-9.985-4.213-2.839-2.615-4.723-6.229-5.094-10.28l-0.005-0.062c-0.088-0.961-0.036-2.267 0.109-2.773 0.397-1.378 1.334-2.489 2.561-3.108l0.029-0.013c0.56-0.281 1.268-0.515 1.491-0.491 0.084 0.009 0.364 0.593 1.401 2.916z"></path>
</symbol>

<symbol id="phone-2" viewBox="0 0 24 24" fill="none">
<path d="M19.4102 13C19.1902 13 18.9602 12.93 18.7402 12.88C18.295 12.7805 17.8573 12.6501 17.4302 12.49C16.9663 12.3212 16.4563 12.33 15.9985 12.5146C15.5406 12.6992 15.1673 13.0466 14.9502 13.49L14.7302 13.95C13.759 13.3992 12.8618 12.7271 12.0602 11.95C11.283 11.1484 10.611 10.2512 10.0602 9.28L10.5202 9.07C10.9635 8.85292 11.311 8.47953 11.4956 8.02169C11.6802 7.56385 11.6889 7.05391 11.5202 6.59C11.3614 6.15903 11.2311 5.71808 11.1302 5.27C11.0802 5.05 11.0402 4.82 11.0102 4.6C10.8887 3.89562 10.5198 3.25774 9.96979 2.80124C9.41979 2.34474 8.72487 2.09961 8.01017 2.11H5.00017C4.57742 2.10945 4.15932 2.19825 3.77329 2.37058C3.38726 2.54292 3.04201 2.7949 2.76017 3.11C2.47249 3.43365 2.25829 3.81575 2.13228 4.23004C2.00626 4.64432 1.97143 5.08098 2.03017 5.51C2.57376 9.67214 4.47538 13.5387 7.44017 16.51C10.4115 19.4748 14.278 21.3764 18.4402 21.92C18.57 21.9299 18.7004 21.9299 18.8302 21.92C19.5676 21.9211 20.2796 21.6505 20.8302 21.16C21.1453 20.8782 21.3973 20.5329 21.5696 20.1469C21.7419 19.7609 21.8307 19.3428 21.8302 18.92V15.92C21.8248 15.229 21.581 14.5611 21.1401 14.0291C20.6992 13.4971 20.0881 13.1336 19.4102 13ZM19.9002 19C19.8998 19.1395 19.8703 19.2775 19.8135 19.4049C19.7566 19.5324 19.6738 19.6465 19.5702 19.74C19.4606 19.8399 19.3301 19.9141 19.1883 19.9573C19.0465 20.0006 18.8968 20.0117 18.7502 19.99C15.0184 19.5026 11.5504 17.802 8.88017 15.15C6.20764 12.4775 4.4922 8.99737 4.00017 5.25C3.97845 5.10333 3.98961 4.95367 4.03285 4.81185C4.07608 4.67003 4.15032 4.5396 4.25017 4.43C4.34479 4.32515 4.46055 4.24154 4.58982 4.18466C4.71909 4.12778 4.85894 4.09892 5.00017 4.1H8.00017C8.23133 4.09435 8.45731 4.16898 8.63964 4.3112C8.82196 4.45341 8.94937 4.65442 9.00017 4.88C9.00017 5.15 9.09017 5.43 9.15017 5.7C9.26575 6.22386 9.41949 6.73857 9.61017 7.24L8.21017 7.9C7.96954 8.01046 7.78253 8.21185 7.69017 8.46C7.59015 8.70346 7.59015 8.97654 7.69017 9.22C9.12937 12.3028 11.6074 14.7808 14.6902 16.22C14.9336 16.32 15.2067 16.32 15.4502 16.22C15.6983 16.1276 15.8997 15.9406 16.0102 15.7L16.6402 14.3C17.1561 14.4881 17.6839 14.6418 18.2202 14.76C18.4802 14.82 18.7602 14.87 19.0302 14.91C19.2558 14.9608 19.4568 15.0882 19.599 15.2705C19.7412 15.4529 19.8158 15.6788 19.8102 15.91L19.9002 19ZM14.0002 2C13.7702 2 13.5302 2 13.3002 2C13.035 2.02254 12.7896 2.14952 12.618 2.353C12.4464 2.55647 12.3626 2.81978 12.3852 3.085C12.4077 3.35022 12.5347 3.59562 12.7382 3.76721C12.9416 3.93881 13.205 4.02254 13.4702 4H14.0002C15.5915 4 17.1176 4.63214 18.2428 5.75736C19.368 6.88258 20.0002 8.4087 20.0002 10C20.0002 10.18 20.0002 10.35 20.0002 10.53C19.978 10.7938 20.0613 11.0556 20.2319 11.2581C20.4025 11.4606 20.6464 11.5871 20.9102 11.61H20.9902C21.2405 11.611 21.4821 11.5181 21.6673 11.3496C21.8524 11.1811 21.9676 10.9493 21.9902 10.7C21.9902 10.47 21.9902 10.23 21.9902 10C21.9902 7.88 21.1487 5.84668 19.6506 4.34668C18.1524 2.84667 16.1202 2.00265 14.0002 2ZM16.0002 10C16.0002 10.2652 16.1055 10.5196 16.2931 10.7071C16.4806 10.8946 16.735 11 17.0002 11C17.2654 11 17.5197 10.8946 17.7073 10.7071C17.8948 10.5196 18.0002 10.2652 18.0002 10C18.0002 8.93913 17.5787 7.92172 16.8286 7.17157C16.0785 6.42143 15.061 6 14.0002 6C13.735 6 13.4806 6.10536 13.2931 6.29289C13.1055 6.48043 13.0002 6.73478 13.0002 7C13.0002 7.26522 13.1055 7.51957 13.2931 7.70711C13.4806 7.89464 13.735 8 14.0002 8C14.5306 8 15.0393 8.21071 15.4144 8.58579C15.7895 8.96086 16.0002 9.46957 16.0002 10Z" fill="currentColor"/>
</symbol>

<symbol id="slide-size" viewBox="0 0 32 32">
<path fill="currentColor" d="M6.958 6.453c-1.573 0.234-3.011 1.41-3.491 2.853-0.27 0.813-0.266 0.675-0.266 6.694s-0.005 5.882 0.266 6.694c0.376 1.13 1.509 2.262 2.638 2.638 0.83 0.277 0.411 0.266 9.894 0.266s9.064 0.011 9.894-0.266c1.13-0.376 2.262-1.509 2.638-2.638 0.27-0.813 0.266-0.675 0.266-6.694 0-4.765-0.013-5.683-0.078-6-0.366-1.725-1.474-2.928-3.173-3.45l-0.4-0.123-8.96-0.006c-4.928-0.005-9.082 0.010-9.229 0.032zM25.341 8.165c0.795 0.31 1.442 0.968 1.709 1.746l0.123 0.357v11.466l-0.123 0.357c-0.256 0.708-0.759 1.275-1.403 1.608l-0.016 0.008c-0.64 0.31-0.134 0.294-9.613 0.294-6.109 0-8.79-0.018-8.989-0.059-0.957-0.198-1.77-0.938-2.102-1.914-0.094-0.28-0.099-0.566-0.099-6.027s0.005-5.747 0.099-6.027c0.334-0.997 1.171-1.74 2.203-1.933l0.018-0.003c0.074-0.013 4.117-0.021 8.986-0.016l8.854 0.006 0.354 0.138zM18.005 9.722c-0.546 0.312-0.522 1.125 0.042 1.392 0.141 0.066 0.349 0.086 0.893 0.086h0.71l-1.394 1.4c-1.498 1.506-1.518 1.533-1.432 1.987 0.045 0.245 0.344 0.544 0.589 0.589 0.454 0.086 0.482 0.066 1.987-1.432l1.4-1.394v0.71c0 0.797 0.054 0.99 0.339 1.194 0.132 0.079 0.291 0.125 0.461 0.125s0.329-0.046 0.465-0.127l-0.004 0.002c0.33-0.235 0.339-0.296 0.339-2.254 0-2.011-0.005-2.038-0.398-2.269l-0.224-0.131-1.782 0.002c-1.746 0-1.786 0.003-1.99 0.12zM14.053 16.888c-0.088 0.045-0.765 0.686-1.506 1.424l-1.347 1.341v-0.712c0-0.84-0.056-1.008-0.398-1.21-0.114-0.077-0.254-0.124-0.406-0.124-0.145 0-0.28 0.042-0.394 0.116l0.003-0.002c-0.4 0.229-0.405 0.259-0.405 2.269 0 1.968 0.010 2.027 0.339 2.264 0.165 0.117 0.202 0.12 1.995 0.134 1.613 0.013 1.85 0.005 2.014-0.074 0.264-0.13 0.443-0.397 0.443-0.706 0-0.288-0.155-0.54-0.387-0.676l-0.004-0.002c-0.208-0.122-0.275-0.131-0.938-0.131h-0.715l1.37-1.373c0.752-0.755 1.394-1.442 1.426-1.525 0.253-0.674-0.464-1.341-1.091-1.014z"></path>
</symbol>

<symbol id="twitter" viewBox="0 0 32 32">
<path fill="currentColor" d="M20.791 5.871c-0.576 0.084-0.979 0.215-1.564 0.504-1.386 0.682-2.394 1.949-2.709 3.47l-0.006 0.032c-0.096 0.465-0.112 1.432-0.032 1.857 0.021 0.082 0.034 0.177 0.034 0.274 0 0.010-0 0.020-0 0.030l0-0.002c-0.035 0.035-1.133-0.089-1.761-0.199-3.116-0.541-6.195-2.259-8.223-4.587-0.417-0.479-0.424-0.483-0.513-0.373-0.093 0.153-0.179 0.331-0.247 0.516l-0.007 0.021c-0.625 1.62-0.429 3.327 0.548 4.771 0.221 0.325 0.765 0.904 1.103 1.169l0.187 0.147-0.373-0.031c-0.437-0.036-0.912-0.165-1.464-0.397-0.115-0.056-0.252-0.107-0.393-0.147l-0.017-0.004c-0.033 0.033 0.092 0.993 0.168 1.281 0.318 1.153 0.989 2.119 1.886 2.803l0.013 0.009c0.413 0.307 1.239 0.712 1.637 0.804 0.153 0.035 0.277 0.081 0.277 0.103 0 0.084-0.915 0.171-1.535 0.145l-0.641-0.027 0.068 0.195c0.469 1.329 1.687 2.52 3.067 2.999 0.389 0.136 0.972 0.257 1.228 0.257 0.115 0 0.221 0.023 0.239 0.051 0.053 0.088-0.767 0.625-1.572 1.032-0.761 0.4-1.644 0.72-2.574 0.914l-0.066 0.012c-0.637 0.135-0.792 0.147-1.907 0.149-0.667 0.001-1.213 0.005-1.213 0.009 0 0.029 0.859 0.508 1.339 0.747 1.439 0.717 3.061 1.199 4.768 1.413 0.765 0.097 2.673 0.083 3.511-0.027 2.053-0.267 4.201-1.009 5.743-1.987 2.817-1.784 4.948-4.544 6.027-7.807 0.439-1.229 0.705-2.647 0.73-4.124l0-0.012 0.031-1.068 0.193-0.139c0.651-0.468 1.584-1.424 2.101-2.155l0.204-0.287-0.363 0.139c-0.779 0.296-1.968 0.607-2.311 0.601l-0.133-0.001 0.132-0.091c0.583-0.4 1.176-1.039 1.556-1.673 0.201-0.337 0.444-0.891 0.405-0.928-0.009-0.009-0.268 0.108-0.576 0.263-0.64 0.32-1.417 0.609-2.089 0.777l-0.465 0.117-0.4-0.337c-1.165-0.976-2.636-1.417-4.039-1.212z"></path>
</symbol>

<symbol id="arrow-right-circle" viewBox="0 0 20 20" fill="none">
<path fill-rule="evenodd" clip-rule="evenodd" d="M20 10C20 15.52 15.51 20 10 20L9.72023 19.9962C4.32942 19.8478 0 15.4264 0 10C0 4.49 4.48 0 10 0C15.51 0 20 4.49 20 10ZM8.02 6C7.73 6.3 7.73 6.77 8.03 7.06L10.98 10L8.03 12.94C7.73 13.23 7.73 13.71 8.02 14C8.32 14.3 8.79 14.3 9.08 14L12.57 10.53C12.71 10.39 12.79 10.2 12.79 10C12.79 9.8 12.71 9.61 12.57 9.47L9.08 6C8.94 5.85 8.75 5.78 8.56 5.78C8.36 5.78 8.17 5.85 8.02 6Z" fill="currentColor"/>
</symbol>

<symbol id="car" viewBox="0 0 25 24" fill="none">
<path d="M2.34863 11.25H23.3486M21.8486 17.25V19.5C21.8486 19.6989 21.7696 19.8897 21.629 20.0303C21.4883 20.171 21.2975 20.25 21.0986 20.25H18.8486C18.6497 20.25 18.459 20.171 18.3183 20.0303C18.1776 19.8897 18.0986 19.6989 18.0986 19.5V17.25M21.8486 17.25H3.84863M21.8486 17.25V11.25L19.0455 4.95C18.9873 4.81672 18.8917 4.70322 18.7702 4.62333C18.6487 4.54343 18.5066 4.50058 18.3611 4.5H7.33613C7.19071 4.50058 7.0486 4.54343 6.92709 4.62333C6.80558 4.70322 6.70992 4.81672 6.65176 4.95L3.84863 11.25V17.25M7.59863 17.25V19.5C7.59863 19.6989 7.51962 19.8897 7.37896 20.0303C7.23831 20.171 7.04755 20.25 6.84863 20.25H4.59863C4.39972 20.25 4.20896 20.171 4.0683 20.0303C3.92765 19.8897 3.84863 19.6989 3.84863 19.5V17.25M6.84912 14.25H8.34912M17.3486 14.25H18.8486" stroke="currentColor" stroke-width="1.60606" stroke-linecap="round" stroke-linejoin="round"/>
</symbol>

<symbol id="globe" viewBox="0 0 24 24" fill="none">
<path d="M11.8 1C8.93566 1 6.18864 2.13785 4.16325 4.16325C2.13785 6.18864 1 8.93566 1 11.8C1 14.6643 2.13785 17.4114 4.16325 19.4368C6.18864 21.4621 8.93566 22.6 11.8 22.6C14.6643 22.6 17.4114 21.4621 19.4368 19.4368C21.4621 17.4114 22.6 14.6643 22.6 11.8C22.6 8.93566 21.4621 6.18864 19.4368 4.16325C17.4114 2.13785 14.6643 1 11.8 1ZM2.332 12.616H5.344C5.392 13.708 5.5444 14.7928 5.8 15.856H3.208C2.72465 14.8371 2.42795 13.7397 2.332 12.616ZM12.616 6.136V2.428C13.7724 2.86747 14.7227 3.72355 15.28 4.828C15.526 5.2444 15.7432 5.6776 15.928 6.124L12.616 6.136ZM16.48 7.756C16.7584 8.8156 16.924 9.9016 16.972 10.996H12.616V7.756H16.48ZM10.984 2.428V6.136H7.672C7.85711 5.68924 8.07366 5.25615 8.32 4.84C8.87496 3.73102 9.82551 2.87039 10.984 2.428ZM10.984 7.756V10.996H6.64C6.688 9.9016 6.8536 8.8156 7.132 7.756H10.984ZM5.344 10.984H2.332C2.42795 9.86031 2.72465 8.76294 3.208 7.744H5.8C5.54391 8.80678 5.3912 9.89183 5.344 10.984ZM6.64 12.616H10.984V15.856H7.132C6.85364 14.7965 6.68872 13.7104 6.64 12.616ZM10.996 17.416V21.124C9.83958 20.6845 8.88934 19.8285 8.332 18.724C8.08566 18.3079 7.86911 17.8748 7.684 17.428L10.996 17.416ZM12.616 21.124V17.476H15.928C15.7429 17.9228 15.5263 18.3559 15.28 18.772C14.7227 19.8765 13.7724 20.7325 12.616 21.172V21.124ZM12.616 15.796V12.556H16.96C16.9113 13.6504 16.7464 14.7365 16.468 15.796H12.616ZM18.268 12.556H21.28C21.184 13.6797 20.8874 14.7771 20.404 15.796H17.8C18.052 14.752 18.2044 13.6876 18.256 12.616L18.268 12.556ZM18.268 10.936C18.213 9.86357 18.0563 8.79879 17.8 7.756H20.392C20.8756 8.776 21.172 9.8728 21.268 10.996L18.268 10.936ZM19.468 6.136H17.32C16.9313 5.04436 16.368 4.02307 15.652 3.112C17.1453 3.7823 18.4423 4.82326 19.42 6.136H19.468ZM7.948 3.112C7.23198 4.02307 6.66865 5.04436 6.28 6.136H4.18C5.15767 4.82326 6.45474 3.7823 7.948 3.112ZM4.168 17.512H6.28C6.66865 18.6036 7.23198 19.6249 7.948 20.536C6.45061 19.8556 5.15314 18.8019 4.18 17.476L4.168 17.512ZM15.64 20.536C16.356 19.6249 16.9193 18.6036 17.308 17.512H19.42C18.4364 18.8072 17.1398 19.8312 15.652 20.488L15.64 20.536Z" fill="currentColor"/>
</symbol>

<symbol id="location" viewBox="0 0 24 24" fill="none">
<path d="M12 13.5C11.2583 13.5 10.5333 13.2801 9.91661 12.868C9.29993 12.456 8.81928 11.8703 8.53545 11.1851C8.25162 10.4998 8.17736 9.74584 8.32206 9.01841C8.46675 8.29098 8.8239 7.6228 9.34835 7.09835C9.8728 6.5739 10.541 6.21675 11.2684 6.07206C11.9958 5.92736 12.7498 6.00162 13.4351 6.28545C14.1203 6.56928 14.706 7.04993 15.118 7.66661C15.5301 8.2833 15.75 9.00832 15.75 9.75C15.7488 10.7442 15.3533 11.6973 14.6503 12.4003C13.9473 13.1033 12.9942 13.4988 12 13.5ZM12 7.5C11.555 7.5 11.12 7.63196 10.75 7.8792C10.38 8.12643 10.0916 8.47783 9.92127 8.88896C9.75098 9.3001 9.70642 9.7525 9.79323 10.189C9.88005 10.6254 10.0943 11.0263 10.409 11.341C10.7237 11.6557 11.1246 11.87 11.561 11.9568C11.9975 12.0436 12.4499 11.999 12.861 11.8287C13.2722 11.6584 13.6236 11.37 13.8708 11C14.118 10.63 14.25 10.195 14.25 9.75C14.2494 9.15345 14.0122 8.5815 13.5903 8.15967C13.1685 7.73784 12.5966 7.5006 12 7.5Z" fill="currentColor"/>
<path d="M12 22.5L5.67301 15.0382C5.58509 14.9262 5.49809 14.8135 5.41201 14.7C4.33124 13.2763 3.74739 11.5374 3.75001 9.75C3.75001 7.56196 4.6192 5.46354 6.16638 3.91637C7.71355 2.36919 9.81197 1.5 12 1.5C14.188 1.5 16.2865 2.36919 17.8336 3.91637C19.3808 5.46354 20.25 7.56196 20.25 9.75C20.2526 11.5366 19.669 13.2747 18.5888 14.6978L18.588 14.7C18.588 14.7 18.363 14.9955 18.3293 15.0353L12 22.5ZM6.60976 13.7963C6.60976 13.7963 6.78451 14.0272 6.82426 14.0767L12 20.181L17.1825 14.0685C17.2155 14.0272 17.3918 13.794 17.3918 13.794C18.2746 12.6308 18.7517 11.2103 18.75 9.75C18.75 7.95979 18.0388 6.2429 16.773 4.97703C15.5071 3.71116 13.7902 3 12 3C10.2098 3 8.49291 3.71116 7.22704 4.97703C5.96117 6.2429 5.25001 7.95979 5.25001 9.75C5.24844 11.2112 5.72609 12.6326 6.60976 13.7963Z" fill="currentColor"/>
</symbol>

<symbol id="open-mail" viewBox="0 0 24 24" fill="none">
<path d="M20.21 8.82003L14 2.78003C13.474 2.27988 12.7759 2.00098 12.05 2.00098C11.3241 2.00098 10.626 2.27988 10.1 2.78003L3.89 8.78003C3.61408 9.02089 3.39216 9.31733 3.23879 9.64993C3.08541 9.98253 3.00404 10.3438 3 10.71V19.29C3.01054 20.0176 3.30904 20.7114 3.83012 21.2194C4.35119 21.7273 5.05235 22.008 5.78 22H18.22C18.9476 22.008 19.6488 21.7273 20.1699 21.2194C20.691 20.7114 20.9895 20.0176 21 19.29V10.71C20.9992 10.3585 20.929 10.0106 20.7935 9.68625C20.6579 9.36191 20.4596 9.06754 20.21 8.82003ZM11.44 4.22003C11.593 4.08019 11.7927 4.00264 12 4.00264C12.2073 4.00264 12.407 4.08019 12.56 4.22003L18 9.50003L12.53 14.78C12.377 14.9199 12.1773 14.9974 11.97 14.9974C11.7627 14.9974 11.563 14.9199 11.41 14.78L6 9.50003L11.44 4.22003ZM19 19.29C18.9871 19.4863 18.8987 19.67 18.7532 19.8024C18.6078 19.9348 18.4166 20.0056 18.22 20H5.78C5.58338 20.0056 5.39225 19.9348 5.24678 19.8024C5.10132 19.67 5.01286 19.4863 5 19.29V11.35L9.05 15.25L7.39 16.85C7.20375 17.0374 7.09921 17.2908 7.09921 17.555C7.09921 17.8192 7.20375 18.0727 7.39 18.26C7.48295 18.3575 7.59463 18.4352 7.71836 18.4885C7.84208 18.5418 7.9753 18.5695 8.11 18.57C8.36747 18.569 8.61462 18.4687 8.8 18.29L10.57 16.59C11.0096 16.8587 11.5148 17.0008 12.03 17.0008C12.5452 17.0008 13.0504 16.8587 13.49 16.59L15.26 18.29C15.4454 18.4687 15.6925 18.569 15.95 18.57C16.0847 18.5695 16.2179 18.5418 16.3416 18.4885C16.4654 18.4352 16.5771 18.3575 16.67 18.26C16.8563 18.0727 16.9608 17.8192 16.9608 17.555C16.9608 17.2908 16.8563 17.0374 16.67 16.85L15 15.25L19 11.35V19.29Z" fill="currentColor"/>
</symbol>

<symbol id="grid" viewBox="0 0 24 24" fill="none">
<path d="M21 2H3C2.73478 2 2.48043 2.10536 2.29289 2.29289C2.10536 2.48043 2 2.73478 2 3V21C2 21.2652 2.10536 21.5196 2.29289 21.7071C2.48043 21.8946 2.73478 22 3 22H21C21.2652 22 21.5196 21.8946 21.7071 21.7071C21.8946 21.5196 22 21.2652 22 21V3C22 2.73478 21.8946 2.48043 21.7071 2.29289C21.5196 2.10536 21.2652 2 21 2ZM8 20H4V16H8V20ZM8 14H4V10H8V14ZM8 8H4V4H8V8ZM14 20H10V16H14V20ZM14 14H10V10H14V14ZM14 8H10V4H14V8ZM20 20H16V16H20V20ZM20 14H16V10H20V14ZM20 8H16V4H20V8Z" fill="currentColor"/>
</symbol>

<symbol id="cross-icon" viewBox="0 0 12 11">
<path d="M6.94004 5.50012L11.14 1.30679C11.2656 1.18125 11.3361 1.01099 11.3361 0.833457C11.3361 0.655923 11.2656 0.485659 11.14 0.360124C11.0145 0.234588 10.8442 0.164062 10.6667 0.164062C10.4892 0.164062 10.3189 0.234588 10.1934 0.360124L6.00004 4.56012L1.80671 0.360124C1.68117 0.234588 1.51091 0.164063 1.33337 0.164063C1.15584 0.164063 0.985576 0.234588 0.860041 0.360124C0.734505 0.485659 0.66398 0.655923 0.66398 0.833457C0.66398 1.01099 0.734505 1.18125 0.860041 1.30679L5.06004 5.50012L0.860041 9.69346C0.797555 9.75543 0.747959 9.82917 0.714113 9.91041C0.680267 9.99164 0.662842 10.0788 0.662842 10.1668C0.662842 10.2548 0.680267 10.3419 0.714113 10.4232C0.747959 10.5044 0.797555 10.5781 0.860041 10.6401C0.922016 10.7026 0.99575 10.7522 1.07699 10.7861C1.15823 10.8199 1.24537 10.8373 1.33337 10.8373C1.42138 10.8373 1.50852 10.8199 1.58976 10.7861C1.671 10.7522 1.74473 10.7026 1.80671 10.6401L6.00004 6.44012L10.1934 10.6401C10.2553 10.7026 10.3291 10.7522 10.4103 10.7861C10.4916 10.8199 10.5787 10.8373 10.6667 10.8373C10.7547 10.8373 10.8419 10.8199 10.9231 10.7861C11.0043 10.7522 11.0781 10.7026 11.14 10.6401C11.2025 10.5781 11.2521 10.5044 11.286 10.4232C11.3198 10.3419 11.3372 10.2548 11.3372 10.1668C11.3372 10.0788 11.3198 9.99164 11.286 9.91041C11.2521 9.82917 11.2025 9.75543 11.14 9.69346L6.94004 5.50012Z" fill="currentColor"/>
</symbol>

<symbol id="cross-2-icon" viewBox="0 -960 960 960">
<path fill="currentColor" d="m256-200-56-56 224-224-224-224 56-56 224 224 224-224 56 56-224 224 224 224-56 56-224-224-224 224Z"/>
</symbol>

<symbol id="menu" fill="currentColor" viewBox="0 0 16 16">
  <path fill-rule="evenodd" d="M2.5 12a.5.5 0 0 1 .5-.5h10a.5.5 0 0 1 0 1H3a.5.5 0 0 1-.5-.5m0-4a.5.5 0 0 1 .5-.5h10a.5.5 0 0 1 0 1H3a.5.5 0 0 1-.5-.5m0-4a.5.5 0 0 1 .5-.5h10a.5.5 0 0 1 0 1H3a.5.5 0 0 1-.5-.5"/>
</symbol>

<symbol id="menu-2" viewBox="0 -960 960 960">
<path fill="currentColor" d="M120-240v-80h720v80H120Zm0-200v-80h720v80H120Zm0-200v-80h720v80H120Z"/>
</symbol>

<symbol id="vr" viewBox="0 0 20 16">
<path d="M5.75.548c-.779.108-1.429.364-2.17.855-.45.299-1.221 1.057-1.547 1.522C.915 4.517.355 6.568.494 8.558c.148 2.124.883 3.915 2.139 5.22.854.886 1.72 1.389 2.811 1.63l.339.075h4.2c3.901 0 4.221-.004 4.493-.059 1.706-.348 3.169-1.543 4.092-3.344.44-.859.748-1.876.887-2.93.077-.588.077-1.712 0-2.3-.259-1.97-1.044-3.63-2.279-4.818-.881-.849-1.843-1.333-2.943-1.483C13.757.484 6.221.484 5.75.548m8.537 1.169c1.269.216 2.457 1.075 3.25 2.351.53.854.91 1.989 1.028 3.072.045.416.045 1.304 0 1.72-.277 2.546-1.739 4.631-3.708 5.285-.641.213-.44.205-4.857.205-3.711 0-4.039-.004-4.306-.059-.952-.194-1.65-.577-2.378-1.306-.492-.493-.789-.893-1.079-1.452C1.662 10.425 1.4 9.319 1.4 8s.262-2.425.837-3.533a5.444 5.444 0 0 1 1.062-1.436c.735-.738 1.489-1.152 2.384-1.311.412-.073 8.178-.076 8.604-.003M4.886 4.483a.626.626 0 0 0-.175.507c.01.06.448 1.455.974 3.101s.977 3.063 1.003 3.149c.098.327.353.489.59.377a.528.528 0 0 0 .188-.165c.036-.06.517-1.518 1.067-3.242.742-2.325 1-3.175 1-3.294 0-.204-.108-.435-.235-.5a.607.607 0 0 0-.233-.049c-.192 0-.335.146-.425.435-.306.99-1.485 4.653-1.503 4.673-.013.014-.367-1.051-.786-2.367-.419-1.315-.789-2.447-.823-2.516-.074-.148-.209-.225-.392-.225-.108 0-.156.022-.25.116m6.066-.013a.565.565 0 0 0-.153.225c-.024.083-.032 1.155-.026 3.378.01 3.228.011 3.256.079 3.348.231.308.541.298.731-.024.062-.105.068-.184.077-1.072l.01-.958.507-.001c.278 0 .56-.009.625-.02l.119-.019.475 1.061c.262.584.507 1.095.545 1.136.245.264.624.111.726-.294.053-.213.03-.283-.451-1.354l-.414-.921.142-.153c.314-.337.532-.752.657-1.252a3.202 3.202 0 0 0-.012-1.457c-.214-.823-.747-1.462-1.384-1.66-.191-.06-.309-.066-1.174-.066h-.962l-.117.103m2.167 1.136c.436.23.671.717.639 1.325-.024.479-.199.854-.5 1.071-.225.163-.405.198-1.031.198h-.56V5.495l.641.011c.621.01.647.014.811.1" fill="currentColor" fill-rule="evenodd"/>
</symbol>

<symbol id="video" viewBox="0 0 20 16">
<path d="M2.685 0.037 C 1.960 0.144,1.222 0.578,0.749 1.175 C 0.478 1.518,0.228 2.014,0.108 2.450 L 0.017 2.783 0.017 8.000 L 0.017 13.217 0.108 13.548 C 0.434 14.732,1.252 15.578,2.387 15.907 L 2.650 15.983 7.500 15.983 L 12.350 15.983 12.613 15.907 C 13.749 15.578,14.575 14.721,14.889 13.548 C 14.973 13.235,14.979 13.165,14.992 12.277 L 15.006 11.337 16.497 12.531 C 17.317 13.187,18.047 13.763,18.119 13.810 C 18.401 13.994,18.780 14.040,19.142 13.934 C 19.336 13.877,19.660 13.608,19.787 13.400 C 20.014 13.027,20.002 13.335,19.992 7.914 L 19.983 3.017 19.908 2.833 C 19.740 2.426,19.431 2.149,19.027 2.044 C 18.839 1.995,18.771 1.991,18.586 2.023 C 18.465 2.044,18.303 2.092,18.225 2.130 C 18.147 2.168,17.391 2.753,16.545 3.430 L 15.006 4.662 14.992 3.723 C 14.979 2.835,14.973 2.765,14.889 2.450 C 14.582 1.300,13.720 0.405,12.617 0.093 L 12.350 0.017 7.617 0.012 C 5.013 0.009,2.794 0.020,2.685 0.037 M12.314 1.399 C 12.585 1.469,12.854 1.613,13.090 1.816 C 13.290 1.987,13.541 2.379,13.635 2.668 L 13.717 2.917 13.717 8.000 L 13.717 13.083 13.637 13.328 C 13.448 13.903,13.030 14.346,12.467 14.565 L 12.250 14.650 7.587 14.659 C 2.453 14.669,2.744 14.680,2.313 14.464 C 1.901 14.257,1.549 13.846,1.374 13.366 L 1.283 13.117 1.275 8.071 C 1.266 3.034,1.266 3.024,1.336 2.765 C 1.425 2.434,1.597 2.141,1.850 1.885 C 2.101 1.632,2.349 1.486,2.668 1.402 C 2.909 1.339,3.062 1.337,7.486 1.335 C 11.936 1.333,12.063 1.335,12.314 1.399 M18.725 10.320 L 18.717 12.640 16.858 11.153 L 15.000 9.666 15.000 8.000 L 15.000 6.334 16.858 4.847 L 18.717 3.360 18.725 5.680 C 18.730 6.956,18.730 9.044,18.725 10.320 " fill="currentColor" stroke="none" fill-rule="evenodd"></path>
</symbol>

<symbol id="share" viewBox="0 0 20 20">
<g>
<path d="M5 12.5C6.38071 12.5 7.5 11.3807 7.5 10C7.5 8.61929 6.38071 7.5 5 7.5C3.61929 7.5 2.5 8.61929 2.5 10C2.5 11.3807 3.61929 12.5 5 12.5Z" fill="currentColor" stroke="currentColor" stroke-width="2" stroke-linecap="round" stroke-linejoin="round"/>
<path d="M15 7.5C16.3807 7.5 17.5 6.38071 17.5 5C17.5 3.61929 16.3807 2.5 15 2.5C13.6193 2.5 12.5 3.61929 12.5 5C12.5 6.38071 13.6193 7.5 15 7.5Z" fill="currentColor" stroke="currentColor" stroke-width="2" stroke-linecap="round" stroke-linejoin="round"/>
<path d="M15 17.5C16.3807 17.5 17.5 16.3807 17.5 15C17.5 13.6193 16.3807 12.5 15 12.5C13.6193 12.5 12.5 13.6193 12.5 15C12.5 16.3807 13.6193 17.5 15 17.5Z" fill="currentColor" stroke="currentColor" stroke-width="2" stroke-linecap="round" stroke-linejoin="round"/>
<path d="M7.25 8.91658L12.75 6.08325" stroke="currentColor" stroke-width="2" stroke-linecap="round" stroke-linejoin="round"/>
<path d="M7.25 11.0833L12.75 13.9166" stroke="currentColor" stroke-width="2" stroke-linecap="round" stroke-linejoin="round"/>
</g>
</symbol>

<symbol id="plan" viewBox="0 0 20 20" fill="none">
<g>
<path d="M9.16667 13.3333V9.16667M9.16667 9.16667H2.5M9.16667 9.16667V7.5M17.5 6.66667H12.5V8.33333M12.5 15V17.5M9.16667 15.8333V17.5M9.16667 2.5V5M17.5 12.5H12.5V10.8333" stroke="currentColor" stroke-width="1.5" stroke-linecap="round" stroke-linejoin="round"/>
<path d="M17.5 3V17C17.5 17.1326 17.4473 17.2598 17.3536 17.3536C17.2598 17.4473 17.1326 17.5 17 17.5H3C2.86739 17.5 2.74021 17.4473 2.64645 17.3536C2.55268 17.2598 2.5 17.1326 2.5 17V3C2.5 2.86739 2.55268 2.74021 2.64645 2.64645C2.74021 2.55268 2.86739 2.5 3 2.5H17C17.1326 2.5 17.2598 2.55268 17.3536 2.64645C17.4473 2.74021 17.5 2.86739 17.5 3Z" stroke="currentColor" stroke-width="1.5" stroke-linecap="round" stroke-linejoin="round"/>
</g>
</symbol>

<symbol id="phone-3" viewBox="0 0 25 24">
<path d="M11.6221 5.102C11.4741 4.69922 11.1776 4.36832 10.7935 4.17716C10.4093 3.98601 9.96657 3.9491 9.55605 4.074C7.61005 4.674 6.25005 6.344 6.54205 8.276C6.86862 10.4203 7.59523 12.4841 8.68405 14.36C9.76123 16.2316 11.1734 17.8892 12.8501 19.25C14.3581 20.47 16.4741 20.134 17.9661 18.734C18.2799 18.4394 18.4703 18.0368 18.4989 17.6073C18.5275 17.1779 18.3921 16.7536 18.1201 16.42L17.0521 15.114C16.8381 14.8514 16.5502 14.6591 16.2257 14.5621C15.9012 14.4651 15.555 14.4679 15.2321 14.57L12.7681 15.35L12.3381 14.906C11.7963 14.3441 11.3224 13.7205 10.9261 13.048C10.5414 12.3679 10.2418 11.6432 10.0341 10.89L9.86805 10.3L11.7681 8.55C12.0188 8.31721 12.1946 8.01515 12.2733 7.6822C12.352 7.34924 12.33 7.00041 12.2101 6.68L11.6241 5.104L11.6221 5.102ZM8.96805 2.162C9.86636 1.88716 10.8358 1.96626 11.6776 2.3831C12.5195 2.79995 13.1701 3.52296 13.4961 4.404L14.0821 5.98C14.3406 6.67239 14.3873 7.42602 14.2164 8.14505C14.0454 8.86408 13.6645 9.51604 13.1221 10.018L12.1421 10.92C12.2681 11.268 12.4381 11.666 12.6581 12.052C12.8781 12.432 13.1341 12.778 13.3681 13.06L14.6281 12.66C15.3325 12.4376 16.0874 12.4317 16.7952 12.6432C17.503 12.8546 18.1311 13.2737 18.5981 13.846L19.6661 15.152C20.2596 15.8778 20.5555 16.8019 20.4938 17.7375C20.4322 18.673 20.0177 19.5503 19.3341 20.192C17.3461 22.058 14.1001 22.832 11.5941 20.804C9.72674 19.2891 8.15391 17.4438 6.95405 15.36C5.73935 13.2677 4.92862 10.9657 4.56405 8.574C4.08405 5.388 6.37005 2.962 8.96805 2.164V2.162Z" fill="currentColor"/>
</symbol>

<symbol id="mail" viewBox="0 0 20 20" fill="none">
<path d="M16.5625 3.75H3.4375C2.57456 3.75 1.875 4.44956 1.875 5.3125V14.6875C1.875 15.5504 2.57456 16.25 3.4375 16.25H16.5625C17.4254 16.25 18.125 15.5504 18.125 14.6875V5.3125C18.125 4.44956 17.4254 3.75 16.5625 3.75Z" stroke="currentColor" stroke-width="1.5" stroke-linecap="round" stroke-linejoin="round"/>
<path d="M4.375 6.25L10 10.625L15.625 6.25" stroke="currentColor" stroke-width="1.5" stroke-linecap="round" stroke-linejoin="round"/>
</symbol>

<symbol id="location-2" viewBox="0 0 24 24">
<path d="M12.0025 7.75C11.2069 7.75 10.4438 8.06607 9.88119 8.62868C9.31858 9.19129 9.00251 9.95435 9.00251 10.75C9.00251 11.5456 9.31858 12.3087 9.88119 12.8713C10.4438 13.4339 11.2069 13.75 12.0025 13.75C12.7982 13.75 13.5612 13.4339 14.1238 12.8713C14.6864 12.3087 15.0025 11.5456 15.0025 10.75C15.0025 9.95435 14.6864 9.19129 14.1238 8.62868C13.5612 8.06607 12.7982 7.75 12.0025 7.75ZM10.2525 10.75C10.2525 10.2859 10.4369 9.84075 10.7651 9.51256C11.0933 9.18437 11.5384 9 12.0025 9C12.4666 9 12.9118 9.18437 13.2399 9.51256C13.5681 9.84075 13.7525 10.2859 13.7525 10.75C13.7525 11.2141 13.5681 11.6592 13.2399 11.9874C12.9118 12.3156 12.4666 12.5 12.0025 12.5C11.5384 12.5 11.0933 12.3156 10.7651 11.9874C10.4369 11.6592 10.2525 11.2141 10.2525 10.75ZM18.5 16L13.456 21.355C13.269 21.5536 13.0434 21.7118 12.793 21.8199C12.5426 21.9281 12.2728 21.9838 12 21.9838C11.7273 21.9838 11.4574 21.9281 11.207 21.8199C10.9566 21.7118 10.731 21.5536 10.544 21.355L5.50001 16H5.51901L5.51051 15.99L5.50001 15.9775C4.20536 14.4463 3.49657 12.5051 3.50001 10.5C3.50001 5.8055 7.30551 2 12 2C16.6945 2 20.5 5.8055 20.5 10.5C20.5035 12.5051 19.7947 14.4463 18.5 15.9775L18.4895 15.99L18.481 16H18.5ZM17.5285 15.1905C18.6426 13.8819 19.253 12.2186 19.25 10.5C19.25 6.496 16.004 3.25 12 3.25C7.99601 3.25 4.75001 6.496 4.75001 10.5C4.74689 12.2186 5.35735 13.8819 6.47151 15.1905L6.62551 15.372L11.454 20.4975C11.5241 20.572 11.6087 20.6313 11.7026 20.6718C11.7965 20.7124 11.8977 20.7333 12 20.7333C12.1023 20.7333 12.2035 20.7124 12.2974 20.6718C12.3913 20.6313 12.4759 20.572 12.546 20.4975L17.3745 15.372L17.5285 15.1905Z" fill="currentColor"/>
</symbol>

<symbol id="image" viewBox="0 0 20 20">
<g>
<path d="M7.49984 18.3334H12.4998C16.6665 18.3334 18.3332 16.6667 18.3332 12.5001V7.50008C18.3332 3.33341 16.6665 1.66675 12.4998 1.66675H7.49984C3.33317 1.66675 1.6665 3.33341 1.6665 7.50008V12.5001C1.6665 16.6667 3.33317 18.3334 7.49984 18.3334Z" stroke="currentColor" stroke-width="1.5" stroke-linecap="round" stroke-linejoin="round"/>
<path d="M7.50016 8.33333C8.42064 8.33333 9.16683 7.58714 9.16683 6.66667C9.16683 5.74619 8.42064 5 7.50016 5C6.57969 5 5.8335 5.74619 5.8335 6.66667C5.8335 7.58714 6.57969 8.33333 7.50016 8.33333Z" stroke="currentColor" stroke-width="1.5" stroke-linecap="round" stroke-linejoin="round"/>
<path d="M2.2251 15.7916L6.33343 13.0332C6.99176 12.5916 7.94176 12.6416 8.53343 13.1499L8.80843 13.3916C9.45843 13.9499 10.5084 13.9499 11.1584 13.3916L14.6251 10.4166C15.2751 9.85821 16.3251 9.85821 16.9751 10.4166L18.3334 11.5832" stroke="currentColor" stroke-width="1.5" stroke-linecap="round" stroke-linejoin="round"/>
</g>
</symbol>

<symbol id="heart" viewBox="0 0 24 24">
<path fill-rule="evenodd" clip-rule="evenodd" d="M5.624 4.42401C3.965 5.18201 2.75 6.98601 2.75 9.13701C2.75 11.334 3.65 13.028 4.938 14.48C6.001 15.676 7.287 16.668 8.541 17.634C8.839 17.864 9.135 18.093 9.426 18.322C9.952 18.737 10.421 19.1 10.874 19.365C11.326 19.629 11.69 19.75 12 19.75C12.31 19.75 12.674 19.63 13.126 19.365C13.579 19.1 14.048 18.737 14.574 18.322C14.864 18.092 15.161 17.864 15.459 17.635C16.713 16.667 17.999 15.676 19.062 14.48C20.351 13.028 21.25 11.334 21.25 9.13701C21.25 6.98701 20.035 5.18201 18.376 4.42401C16.764 3.68701 14.598 3.88201 12.54 6.02101C12.47 6.09359 12.3862 6.15133 12.2934 6.19077C12.2006 6.2302 12.1008 6.25053 12 6.25053C11.8992 6.25053 11.7994 6.2302 11.7066 6.19077C11.6138 6.15133 11.53 6.09359 11.46 6.02101C9.402 3.88201 7.236 3.68701 5.624 4.42401ZM12 4.46001C9.688 2.39001 7.099 2.10001 5 3.05901C2.786 4.07401 1.25 6.42601 1.25 9.13801C1.25 11.803 2.36 13.837 3.817 15.477C4.983 16.79 6.41 17.889 7.671 18.859C7.957 19.079 8.234 19.293 8.497 19.501C9.01 19.905 9.56 20.335 10.117 20.661C10.674 20.986 11.31 21.251 12 21.251C12.69 21.251 13.326 20.986 13.883 20.661C14.441 20.335 14.99 19.905 15.503 19.501C15.7769 19.2852 16.0522 19.0712 16.329 18.859C17.589 17.889 19.017 16.789 20.183 15.477C21.64 13.837 22.75 11.803 22.75 9.13801C22.75 6.42601 21.215 4.07401 19 3.06101C16.901 2.10101 14.312 2.39101 12 4.46001Z" fill="currentColor"/>
</symbol>

<symbol id="food" viewBox="0 0 24 24">
<path d="M4.15 4.9H3.1V2.1H11.9V4.9H10.85H10.6976L10.7583 5.03983L12.3715 8.75503C12.0823 8.90991 11.8071 9.0719 11.5457 9.24104C11.2967 9.40212 11.0605 9.58214 10.8369 9.78104L8.79206 4.96094L8.7662 4.9H8.7H6.3H6.2339L6.208 4.96081L3.908 10.3608L3.9 10.3796V10.4V18V18.1H4H8.17149C8.25391 18.4291 8.36163 18.7545 8.49458 19.0762C8.6142 19.3656 8.75479 19.6403 8.91637 19.9H2.1V9.97078L4.24172 5.03984L4.30246 4.9H4.15ZM15.9 8.89827C15.2696 8.87633 14.7367 8.64524 14.2957 8.20429C13.8316 7.74021 13.6 7.17419 13.6 6.5C13.6 5.82581 13.8316 5.25979 14.2957 4.79571C14.7367 4.35476 15.2696 4.12367 15.9 4.10173V8.89827ZM20.8983 8.9H16.1017C16.1237 8.26964 16.3548 7.73666 16.7957 7.29571C17.2598 6.83163 17.8258 6.6 18.5 6.6C19.1742 6.6 19.7402 6.83163 20.2043 7.29571C20.6452 7.73666 20.8763 8.26964 20.8983 8.9ZM16 21.9C14.3596 21.9 12.9684 21.327 11.8207 20.1793C10.673 19.0316 10.1 17.6404 10.1 16C10.1 14.3596 10.673 12.9684 11.8207 11.8207C12.9684 10.673 14.3596 10.1 16 10.1C17.6404 10.1 19.0316 10.673 20.1793 11.8207C21.327 12.9684 21.9 14.3596 21.9 16C21.9 17.6404 21.327 19.0316 20.1793 20.1793C19.0316 21.327 17.6404 21.9 16 21.9ZM16 20.1C17.1267 20.1 18.0938 19.6976 18.8957 18.8957C19.6976 18.0938 20.1 17.1267 20.1 16C20.1 14.8733 19.6976 13.9062 18.8957 13.1043C18.0938 12.3024 17.1267 11.9 16 11.9C14.8733 11.9 13.9062 12.3024 13.1043 13.1043C12.3024 13.9062 11.9 14.8733 11.9 16C11.9 17.1267 12.3024 18.0938 13.1043 18.8957C13.9062 19.6976 14.8733 20.1 16 20.1Z" fill="currentColor" stroke="white" stroke-width="0.2"/>
</symbol>

<symbol id="doctor" viewBox="0 0 24 24">
<path d="M8.80001 11.2C7.73915 11.2 6.72173 10.7785 5.97159 10.0284C5.22144 9.27826 4.80001 8.26084 4.80001 7.19998V3.99998C4.80001 3.7878 4.8843 3.58432 5.03433 3.43429C5.18436 3.28426 5.38784 3.19998 5.60001 3.19998H6.40001C6.61219 3.19998 6.81567 3.11569 6.9657 2.96566C7.11573 2.81563 7.20001 2.61215 7.20001 2.39998C7.20001 2.1878 7.11573 1.98432 6.9657 1.83429C6.81567 1.68426 6.61219 1.59998 6.40001 1.59998H5.60001C4.96349 1.59998 4.35304 1.85283 3.90296 2.30292C3.45287 2.75301 3.20001 3.36346 3.20001 3.99998V7.19998C3.20104 8.10377 3.42143 8.9938 3.84225 9.79364C4.26307 10.5935 4.87175 11.2792 5.61601 11.792C6.33107 12.4224 6.91098 13.1912 7.32072 14.0519C7.73046 14.9126 7.96154 15.8475 8.00001 16.8C8.00001 18.2852 8.59001 19.7096 9.64021 20.7598C10.6904 21.81 12.1148 22.4 13.6 22.4C15.0852 22.4 16.5096 21.81 17.5598 20.7598C18.61 19.7096 19.2 18.2852 19.2 16.8V15.888C19.9541 15.6933 20.6114 15.2302 21.0485 14.5856C21.4856 13.9409 21.6726 13.159 21.5745 12.3864C21.4764 11.6137 21.0998 10.9034 20.5154 10.3885C19.931 9.87365 19.1789 9.58959 18.4 9.58959C17.6212 9.58959 16.869 9.87365 16.2846 10.3885C15.7002 10.9034 15.3237 11.6137 15.2255 12.3864C15.1274 13.159 15.3144 13.9409 15.7515 14.5856C16.1887 15.2302 16.8459 15.6933 17.6 15.888V16.8C17.6 17.8608 17.1786 18.8783 16.4284 19.6284C15.6783 20.3785 14.6609 20.8 13.6 20.8C12.5391 20.8 11.5217 20.3785 10.7716 19.6284C10.0214 18.8783 9.60001 17.8608 9.60001 16.8C9.64051 15.8463 9.87409 14.9107 10.2866 14.0499C10.6991 13.1891 11.282 12.421 12 11.792C12.7413 11.2774 13.3469 10.5909 13.7649 9.79119C14.1828 8.99146 14.4008 8.10235 14.4 7.19998V3.99998C14.4 3.36346 14.1472 2.75301 13.6971 2.30292C13.247 1.85283 12.6365 1.59998 12 1.59998H11.2C10.9878 1.59998 10.7844 1.68426 10.6343 1.83429C10.4843 1.98432 10.4 2.1878 10.4 2.39998C10.4 2.61215 10.4843 2.81563 10.6343 2.96566C10.7844 3.11569 10.9878 3.19998 11.2 3.19998H12C12.2122 3.19998 12.4157 3.28426 12.5657 3.43429C12.7157 3.58432 12.8 3.7878 12.8 3.99998V7.19998C12.8 7.72526 12.6965 8.24541 12.4955 8.73071C12.2945 9.21601 11.9999 9.65697 11.6284 10.0284C11.257 10.3998 10.816 10.6945 10.3307 10.8955C9.84544 11.0965 9.3253 11.2 8.80001 11.2ZM18.4 14.4C17.9757 14.4 17.5687 14.2314 17.2686 13.9313C16.9686 13.6313 16.8 13.2243 16.8 12.8C16.8 12.3756 16.9686 11.9687 17.2686 11.6686C17.5687 11.3685 17.9757 11.2 18.4 11.2C18.8244 11.2 19.2313 11.3685 19.5314 11.6686C19.8314 11.9687 20 12.3756 20 12.8C20 13.2243 19.8314 13.6313 19.5314 13.9313C19.2313 14.2314 18.8244 14.4 18.4 14.4Z" fill="currentColor"/>
</symbol>

<symbol id="comment" viewBox="0 0 20 20">
<path d="M13.73 2.06348H5.7935C3.60302 2.06348 1.82524 3.83331 1.82524 6.01586V10.7619V11.5555C1.82524 13.7381 3.60302 15.5079 5.7935 15.5079H6.98397C7.19826 15.5079 7.48397 15.6508 7.6189 15.8254L8.80937 17.4048C9.33318 18.1032 10.1903 18.1032 10.7141 17.4048L11.9046 15.8254C12.0554 15.627 12.2935 15.5079 12.5395 15.5079H13.73C15.9205 15.5079 17.6983 13.7381 17.6983 11.5555V6.01586C17.6983 3.83331 15.9205 2.06348 13.73 2.06348ZM10.5554 11.3889H5.7935C5.4681 11.3889 5.19826 11.1191 5.19826 10.7936C5.19826 10.4682 5.4681 10.1984 5.7935 10.1984H10.5554C10.8808 10.1984 11.1507 10.4682 11.1507 10.7936C11.1507 11.1191 10.8808 11.3889 10.5554 11.3889ZM13.73 7.42062H5.7935C5.4681 7.42062 5.19826 7.15077 5.19826 6.82538C5.19826 6.49998 5.4681 6.23014 5.7935 6.23014H13.73C14.0554 6.23014 14.3252 6.49998 14.3252 6.82538C14.3252 7.15077 14.0554 7.42062 13.73 7.42062Z" fill="currentColor"/>
</symbol>

<symbol id="coffee" viewBox="0 0 24 24">
<path d="M1.5 21H22.5V22.5H1.5V21ZM18.375 8.25H6C5.6023 8.2504 5.221 8.40856 4.93978 8.68978C4.65856 8.971 4.5004 9.3523 4.5 9.75V15.75C4.50119 16.7442 4.89666 17.6973 5.59966 18.4003C6.30267 19.1033 7.2558 19.4988 8.25 19.5H14.25C15.2442 19.4988 16.1973 19.1033 16.9003 18.4003C17.6033 17.6973 17.9988 16.7442 18 15.75V15H18.375C19.2701 15 20.1285 14.6444 20.7615 14.0115C21.3944 13.3785 21.75 12.5201 21.75 11.625C21.75 10.7299 21.3944 9.87145 20.7615 9.23851C20.1285 8.60558 19.2701 8.25 18.375 8.25ZM16.5 15.75C16.4994 16.3466 16.2622 16.9185 15.8403 17.3403C15.4185 17.7622 14.8466 17.9994 14.25 18H8.25C7.65345 17.9994 7.0815 17.7622 6.65967 17.3403C6.23784 16.9185 6.0006 16.3466 6 15.75V9.75H16.5V15.75ZM18.375 13.5H18V9.75H18.375C18.8723 9.75 19.3492 9.94754 19.7008 10.2992C20.0525 10.6508 20.25 11.1277 20.25 11.625C20.25 12.1223 20.0525 12.5992 19.7008 12.9508C19.3492 13.3025 18.8723 13.5 18.375 13.5ZM14.25 6.75H12.75V6.6405C12.7511 6.36174 12.674 6.08825 12.5275 5.85108C12.3811 5.61392 12.171 5.42256 11.9213 5.29875L9.9075 4.293C9.40815 4.04516 8.98821 3.66241 8.69526 3.18812C8.40231 2.71383 8.24806 2.16697 8.25 1.6095V0.75H9.75V1.6095C9.74914 1.8883 9.8264 2.16177 9.973 2.39892C10.1196 2.63606 10.3297 2.8274 10.5795 2.95125L12.5917 3.957C13.0912 4.2048 13.5112 4.58753 13.8043 5.06181C14.0974 5.53609 14.2518 6.08297 14.25 6.6405V6.75Z" fill="currentColor"/>
</symbol>

<symbol id="chef-hat" viewBox="0 0 24 24">
<path d="M5 14.584H5.75C5.74992 14.4381 5.70732 14.2955 5.62739 14.1734C5.54746 14.0514 5.43369 13.9553 5.3 13.897L5 14.584ZM19 14.584L18.7 13.897C18.5663 13.9553 18.4525 14.0514 18.3726 14.1734C18.2927 14.2955 18.2501 14.4381 18.25 14.584H19ZM15.75 7C15.75 7.19891 15.829 7.38968 15.9697 7.53033C16.1103 7.67098 16.3011 7.75 16.5 7.75C16.6989 7.75 16.8897 7.67098 17.0303 7.53033C17.171 7.38968 17.25 7.19891 17.25 7H15.75ZM6.75 7C6.75 7.19891 6.82902 7.38968 6.96967 7.53033C7.11032 7.67098 7.30109 7.75 7.5 7.75C7.69891 7.75 7.88968 7.67098 8.03033 7.53033C8.17098 7.38968 8.25 7.19891 8.25 7H6.75ZM7 4.25C5.47501 4.25 4.01247 4.8558 2.93414 5.93414C1.8558 7.01247 1.25 8.47501 1.25 10H2.75C2.75 8.87283 3.19777 7.79183 3.9948 6.9948C4.79183 6.19777 5.87283 5.75 7 5.75V4.25ZM17 5.75C18.1272 5.75 19.2082 6.19777 20.0052 6.9948C20.8022 7.79183 21.25 8.87283 21.25 10H22.75C22.75 8.47501 22.1442 7.01247 21.0659 5.93414C19.9875 4.8558 18.525 4.25 17 4.25V5.75ZM15 21.25H9V22.75H15V21.25ZM9 21.25C8.036 21.25 7.388 21.248 6.905 21.183C6.444 21.121 6.246 21.014 6.116 20.883L5.056 21.945C5.511 22.4 6.078 22.585 6.706 22.67C7.312 22.752 8.078 22.75 9 22.75V21.25ZM4.25 18C4.25 18.922 4.248 19.688 4.33 20.294C4.414 20.922 4.6 21.489 5.055 21.944L6.116 20.884C5.986 20.754 5.879 20.556 5.816 20.094C5.752 19.612 5.75 18.964 5.75 18H4.25ZM18.25 18C18.25 18.964 18.248 19.612 18.183 20.095C18.121 20.556 18.014 20.754 17.883 20.884L18.945 21.944C19.4 21.489 19.585 20.922 19.67 20.294C19.752 19.688 19.75 18.922 19.75 18H18.25ZM15 22.75C15.922 22.75 16.688 22.752 17.294 22.67C17.922 22.586 18.49 22.4 18.945 21.944L17.884 20.884C17.754 21.014 17.556 21.121 17.094 21.184C16.612 21.248 15.964 21.25 15 21.25V22.75ZM7 5.75C7.214 5.75 7.423 5.766 7.628 5.796L7.847 4.312C7.56656 4.27063 7.28347 4.24991 7 4.25V5.75ZM12 1.25C10.9028 1.25 9.8331 1.59365 8.94117 2.23268C8.04925 2.87172 7.37986 3.77406 7.027 4.813L8.447 5.295C8.69916 4.55281 9.17745 3.90823 9.81469 3.45178C10.4519 2.99532 11.2161 2.74991 12 2.75V1.25ZM7.027 4.813C6.84303 5.3564 6.74945 5.9263 6.75 6.5H8.25C8.25 6.077 8.32 5.672 8.448 5.295L7.027 4.813ZM17 4.25C16.713 4.25 16.43 4.271 16.153 4.312L16.373 5.796C16.5806 5.76535 16.7902 5.74998 17 5.75V4.25ZM12 2.75C12.7837 2.75012 13.5477 2.99562 14.1847 3.45207C14.8218 3.90851 15.2999 4.55297 15.552 5.295L16.972 4.813C16.6192 3.77422 15.95 2.872 15.0582 2.23298C14.1665 1.59395 13.0971 1.25021 12 1.25V2.75ZM15.552 5.295C15.68 5.672 15.75 6.077 15.75 6.5H17.25C17.25 5.911 17.152 5.344 16.972 4.813L15.553 5.295H15.552ZM5.75 18V14.584H4.25V18H5.75ZM5.3 13.897C4.54188 13.566 3.89681 13.021 3.44386 12.3288C2.99092 11.6366 2.74978 10.8272 2.75 10H1.25C1.24993 11.119 1.57628 12.2137 2.18908 13.1499C2.80188 14.0862 3.6745 14.8233 4.7 15.271L5.3 13.897ZM18.25 14.584V18H19.75V14.584H18.25ZM21.25 10C21.2502 10.8272 21.0091 11.6366 20.5561 12.3288C20.1032 13.021 19.4581 13.566 18.7 13.897L19.3 15.271C20.3255 14.8233 21.1981 14.0862 21.8109 13.1499C22.4237 12.2137 22.7501 11.119 22.75 10H21.25ZM15.75 6.5V7H17.25V6.5H15.75ZM6.75 6.5V7H8.25V6.5H6.75Z" fill="currentColor"/>
<path d="M5 18H19" stroke="currentColor" stroke-width="1.5" stroke-linecap="round" stroke-linejoin="round"/>
</symbol>

<symbol id="calendar" viewBox="0 0 20 21">
<path d="M14.1667 12.1667C14.3877 12.1667 14.5996 12.0789 14.7559 11.9226C14.9122 11.7663 15 11.5543 15 11.3333C15 11.1123 14.9122 10.9004 14.7559 10.7441C14.5996 10.5878 14.3877 10.5 14.1667 10.5C13.9457 10.5 13.7337 10.5878 13.5774 10.7441C13.4211 10.9004 13.3333 11.1123 13.3333 11.3333C13.3333 11.5543 13.4211 11.7663 13.5774 11.9226C13.7337 12.0789 13.9457 12.1667 14.1667 12.1667ZM14.1667 15.5C14.3877 15.5 14.5996 15.4122 14.7559 15.2559C14.9122 15.0996 15 14.8877 15 14.6667C15 14.4457 14.9122 14.2337 14.7559 14.0774C14.5996 13.9211 14.3877 13.8333 14.1667 13.8333C13.9457 13.8333 13.7337 13.9211 13.5774 14.0774C13.4211 14.2337 13.3333 14.4457 13.3333 14.6667C13.3333 14.8877 13.4211 15.0996 13.5774 15.2559C13.7337 15.4122 13.9457 15.5 14.1667 15.5ZM10.8333 11.3333C10.8333 11.5543 10.7455 11.7663 10.5893 11.9226C10.433 12.0789 10.221 12.1667 10 12.1667C9.77899 12.1667 9.56702 12.0789 9.41074 11.9226C9.25446 11.7663 9.16667 11.5543 9.16667 11.3333C9.16667 11.1123 9.25446 10.9004 9.41074 10.7441C9.56702 10.5878 9.77899 10.5 10 10.5C10.221 10.5 10.433 10.5878 10.5893 10.7441C10.7455 10.9004 10.8333 11.1123 10.8333 11.3333ZM10.8333 14.6667C10.8333 14.8877 10.7455 15.0996 10.5893 15.2559C10.433 15.4122 10.221 15.5 10 15.5C9.77899 15.5 9.56702 15.4122 9.41074 15.2559C9.25446 15.0996 9.16667 14.8877 9.16667 14.6667C9.16667 14.4457 9.25446 14.2337 9.41074 14.0774C9.56702 13.9211 9.77899 13.8333 10 13.8333C10.221 13.8333 10.433 13.9211 10.5893 14.0774C10.7455 14.2337 10.8333 14.4457 10.8333 14.6667ZM5.83333 12.1667C6.05435 12.1667 6.26631 12.0789 6.42259 11.9226C6.57887 11.7663 6.66667 11.5543 6.66667 11.3333C6.66667 11.1123 6.57887 10.9004 6.42259 10.7441C6.26631 10.5878 6.05435 10.5 5.83333 10.5C5.61232 10.5 5.40036 10.5878 5.24408 10.7441C5.0878 10.9004 5 11.1123 5 11.3333C5 11.5543 5.0878 11.7663 5.24408 11.9226C5.40036 12.0789 5.61232 12.1667 5.83333 12.1667ZM5.83333 15.5C6.05435 15.5 6.26631 15.4122 6.42259 15.2559C6.57887 15.0996 6.66667 14.8877 6.66667 14.6667C6.66667 14.4457 6.57887 14.2337 6.42259 14.0774C6.26631 13.9211 6.05435 13.8333 5.83333 13.8333C5.61232 13.8333 5.40036 13.9211 5.24408 14.0774C5.0878 14.2337 5 14.4457 5 14.6667C5 14.8877 5.0878 15.0996 5.24408 15.2559C5.40036 15.4122 5.61232 15.5 5.83333 15.5Z" fill="currentColor"/>
<path fill-rule="evenodd" clip-rule="evenodd" d="M5.83334 1.95831C5.9991 1.95831 6.15808 2.02416 6.27529 2.14137C6.3925 2.25858 6.45834 2.41755 6.45834 2.58331V3.21915C7.01001 3.20831 7.61751 3.20831 8.28584 3.20831H11.7133C12.3825 3.20831 12.99 3.20831 13.5417 3.21915V2.58331C13.5417 2.41755 13.6075 2.25858 13.7247 2.14137C13.8419 2.02416 14.0009 1.95831 14.1667 1.95831C14.3324 1.95831 14.4914 2.02416 14.6086 2.14137C14.7258 2.25858 14.7917 2.41755 14.7917 2.58331V3.27248C15.0083 3.28915 15.2133 3.30998 15.4075 3.33581C16.3842 3.46748 17.175 3.74415 17.7992 4.36748C18.4225 4.99165 18.6992 5.78248 18.8308 6.75915C18.9583 7.70915 18.9583 8.92165 18.9583 10.4533V12.2133C18.9583 13.745 18.9583 14.9583 18.8308 15.9075C18.6992 16.8841 18.4225 17.675 17.7992 18.2991C17.175 18.9225 16.3842 19.1991 15.4075 19.3308C14.4575 19.4583 13.245 19.4583 11.7133 19.4583H8.28751C6.75584 19.4583 5.54251 19.4583 4.59334 19.3308C3.61668 19.1991 2.82584 18.9225 2.20168 18.2991C1.57834 17.675 1.30168 16.8841 1.17001 15.9075C1.04251 14.9575 1.04251 13.745 1.04251 12.2133V10.4533C1.04251 8.92165 1.04251 7.70831 1.17001 6.75915C1.30168 5.78248 1.57834 4.99165 2.20168 4.36748C2.82584 3.74415 3.61668 3.46748 4.59334 3.33581C4.78751 3.30998 4.99334 3.28915 5.20918 3.27248V2.58331C5.20918 2.4177 5.27491 2.25885 5.39194 2.14167C5.50897 2.02448 5.66773 1.95853 5.83334 1.95831ZM4.75834 4.57498C3.92084 4.68748 3.43751 4.89915 3.08501 5.25165C2.73251 5.60415 2.52084 6.08748 2.40834 6.92581C2.38918 7.06748 2.37334 7.21748 2.36001 7.37498H17.64C17.6267 7.21665 17.6108 7.06748 17.5917 6.92498C17.4792 6.08748 17.2675 5.60415 16.915 5.25165C16.5625 4.89915 16.0792 4.68748 15.2408 4.57498C14.385 4.45998 13.2558 4.45831 11.6667 4.45831H8.33334C6.74418 4.45831 5.61584 4.45998 4.75834 4.57498ZM2.29168 10.5C2.29168 9.78831 2.29168 9.16915 2.30251 8.62498H17.6975C17.7083 9.16915 17.7083 9.78831 17.7083 10.5V12.1666C17.7083 13.7558 17.7067 14.885 17.5917 15.7416C17.4792 16.5791 17.2675 17.0625 16.915 17.415C16.5625 17.7675 16.0792 17.9791 15.2408 18.0916C14.385 18.2066 13.2558 18.2083 11.6667 18.2083H8.33334C6.74418 18.2083 5.61584 18.2066 4.75834 18.0916C3.92084 17.9791 3.43751 17.7675 3.08501 17.415C2.73251 17.0625 2.52084 16.5791 2.40834 15.7408C2.29334 14.885 2.29168 13.7558 2.29168 12.1666V10.5Z" fill="currentColor"/>
</symbol>

<symbol id="bus" viewBox="0 0 24 24">
<path d="M20.25 8.25H21.75V11.25H20.25V8.25ZM2.25 8.25H3.75V11.25H2.25V8.25ZM15 15H16.5V16.5H15V15ZM7.5 15H9V16.5H7.5V15Z" fill="currentColor"/>
<path d="M15.75 3H8.25C7.2558 3.00119 6.30267 3.39666 5.59966 4.09966C4.89666 4.80267 4.50119 5.7558 4.5 6.75V17.25C4.5004 17.6477 4.65856 18.029 4.93978 18.3102C5.221 18.5914 5.6023 18.7496 6 18.75V21H7.5V18.75H16.5V21H18V18.75C18.3976 18.7494 18.7788 18.5912 19.06 18.31C19.3412 18.0288 19.4994 17.6476 19.5 17.25V6.75C19.4988 5.7558 19.1033 4.80267 18.4003 4.09966C17.6973 3.39666 16.7442 3.00119 15.75 3ZM18 7.5V12H6V7.5H18ZM8.25 4.5H15.75C16.2138 4.50138 16.6659 4.64631 17.044 4.91488C17.4222 5.18346 17.7079 5.56252 17.862 6H6.138C6.29209 5.56252 6.57783 5.18346 6.95599 4.91488C7.33415 4.64631 7.78617 4.50138 8.25 4.5ZM6 17.25V13.5H18.0007L18.0015 17.25H6Z" fill="currentColor"/>
</symbol>

<symbol id="brush" viewBox="0 0 25 24" fill="none">
<path d="M10 19.5V18H5C4.45 18 3.95 17.78 3.59 17.41C3.22 17.05 3 16.55 3 16C3 14.97 3.8 14.11 4.81 14.01C4.87 14 4.93 14 5 14H20C20.07 14 20.13 14 20.19 14.01C20.67 14.05 21.09 14.26 21.41 14.59C21.82 14.99 22.04 15.56 21.99 16.18C21.9 17.23 20.95 18 19.89 18H15V19.5C15 20.88 13.88 22 12.5 22C11.12 22 10 20.88 10 19.5Z" stroke="currentColor" stroke-width="1.5" stroke-linecap="round" stroke-linejoin="round"/>
<path d="M20.6702 5.3L20.1902 14.01C20.1302 14 20.0702 14 20.0002 14H5.00016C4.93016 14 4.87016 14 4.81016 14.01L4.33016 5.3C4.15016 3.53 5.54016 2 7.31016 2H17.6902C19.4602 2 20.8502 3.53 20.6702 5.3Z" stroke="currentColor" stroke-width="1.5" stroke-linecap="round" stroke-linejoin="round"/>
<path d="M8.49023 2V7" stroke="currentColor" stroke-width="1.5" stroke-linecap="round" stroke-linejoin="round"/>
<path d="M12.5 2V4" stroke="currentColor" stroke-width="1.5" stroke-linecap="round" stroke-linejoin="round"/>
</symbol>

</defs>
</svg>
