<?xml version="1.0" encoding="utf-8"?><svg viewBox="0 0 44 44" xmlns="http://www.w3.org/2000/svg" xmlns:xlink="http://www.w3.org/1999/xlink"><style>:root>svg{display:none}:root>svg:target{display:block}</style><svg fill="none" viewBox="0 0 24 25" id="arrow-down" xmlns="http://www.w3.org/2000/svg"><path d="M4.47 8.49a.75.75 0 0 1 .976-.072l.084.072L12 14.96l6.47-6.47a.75.75 0 0 1 .976-.072l.084.072a.75.75 0 0 1 .073.977l-.073.084-7 7a.75.75 0 0 1-.976.073l-.084-.073-7-7a.75.75 0 0 1 0-1.06Z" fill="#27334C"/></svg><svg fill="none" viewBox="0 0 20 20" id="bathroom" xmlns="http://www.w3.org/2000/svg"><path d="M2.5 10.833v2.5a3.334 3.334 0 0 0 3.333 3.334h8.334a3.333 3.333 0 0 0 3.333-3.334v-2a.5.5 0 0 0-.5-.5H2.5Zm0 0v-5A3.333 3.333 0 0 1 5.833 2.5H10M6.667 16.667l-.834 1.666m7.5-1.666.834 1.666" stroke="#EFA163" stroke-width="1.5" stroke-linecap="round" stroke-linejoin="round"/><path d="M7.167 6.667h5.666a.455.455 0 0 0 .467-.499C13.178 5.062 12.614 2.5 10 2.5S6.822 5.063 6.7 6.168c-.03.275.19.499.467.499Z" stroke="#EFA163" stroke-width="1.5" stroke-linecap="round" stroke-linejoin="round"/></svg><svg fill="none" viewBox="0 0 20 20" id="bed" xmlns="http://www.w3.org/2000/svg"><path d="M5.625 3.333h8.75a2.292 2.292 0 0 1 2.287 2.152l.005.14V8.42a2.293 2.293 0 0 1 1.661 2.05l.005.155v6.25a.625.625 0 0 1-1.244.085l-.006-.085V15H2.917v1.875a.625.625 0 0 1-.54.62l-.085.005a.625.625 0 0 1-.62-.54l-.005-.085v-6.25c0-1.05.705-1.933 1.666-2.206V5.625a2.292 2.292 0 0 1 2.152-2.287l.14-.005Zm10.416 6.25H3.958a1.042 1.042 0 0 0-1.037.935l-.004.107v3.125h14.166v-3.125a1.042 1.042 0 0 0-.935-1.036l-.107-.006Zm-1.666-5h-8.75a1.042 1.042 0 0 0-1.037.935l-.005.107v2.708h1.25a.833.833 0 0 1 .833-.833h1.667a.833.833 0 0 1 .828.736l.005.097h1.667a.834.834 0 0 1 .833-.833h1.667a.833.833 0 0 1 .828.736l.005.097h1.25V5.625a1.042 1.042 0 0 0-.934-1.037l-.107-.005Z" fill="#EFA163"/></svg><svg fill="none" viewBox="0 0 22 19" id="feedback" xmlns="http://www.w3.org/2000/svg"><path d="m18.847 14.637-.12-.137H6a.5.5 0 0 1-.5-.5V4a.5.5 0 0 1 .5-.5h15a.5.5 0 0 1 .5.5v12.889c-.093-.16-.215-.301-.36-.417l-2.293-1.835Z" stroke="#fff"/><path d="m3.153 11.637.12-.137H16a.5.5 0 0 0 .5-.5V1a.5.5 0 0 0-.5-.5H1a.5.5 0 0 0-.5.5v12.889a1.5 1.5 0 0 1 .36-.417l2.293-1.835Z" stroke="#fff"/><path fill="#142B36" d="M6 4h12v8H6z"/><rect x="8.25" y="7.25" width="10.5" height=".5" rx=".25" fill="#fff" stroke="#fff" stroke-width=".5"/><rect x="8.25" y="10.25" width="9.5" height=".5" rx=".25" fill="#fff" stroke="#fff" stroke-width=".5"/></svg><svg fill="none" viewBox="0 0 44 44" id="house-logo" xmlns="http://www.w3.org/2000/svg"><path d="M37.125 37.125V19.852a1.428 1.428 0 0 0-.447-1.015L22.928 6.342a1.375 1.375 0 0 0-1.856 0L7.322 18.837a1.426 1.426 0 0 0-.447 1.015v17.273" stroke="#4A566E" stroke-width="2.75" stroke-linecap="round" stroke-linejoin="round"/><path d="M26.125 37.125V27.5a1.375 1.375 0 0 0-1.375-1.375h-5.5a1.375 1.375 0 0 0-1.375 1.375v9.625" fill="#EFA163"/><path d="M26.125 37.125V27.5a1.375 1.375 0 0 0-1.375-1.375h-5.5a1.375 1.375 0 0 0-1.375 1.375v9.625M2.75 37.125h38.5" stroke="#4A566E" stroke-width="2.75" stroke-linecap="round" stroke-linejoin="round"/></svg><svg fill="none" viewBox="0 0 20 20" id="slide-size" xmlns="http://www.w3.org/2000/svg"><path d="M2 6.75A2.75 2.75 0 0 1 4.75 4h10.5A2.75 2.75 0 0 1 18 6.75v6.5A2.75 2.75 0 0 1 15.25 16H4.75A2.75 2.75 0 0 1 2 13.25v-6.5ZM4.75 5A1.75 1.75 0 0 0 3 6.75v6.5c0 .966.784 1.75 1.75 1.75h10.5A1.75 1.75 0 0 0 17 13.25v-6.5A1.75 1.75 0 0 0 15.25 5H4.75ZM11 6.5a.5.5 0 0 1 .5-.5h2a.5.5 0 0 1 .5.5v2a.5.5 0 0 1-1 0v-.793l-1.646 1.647a.5.5 0 1 1-.708-.708L12.293 7H11.5a.5.5 0 0 1-.5-.5Zm-2.354 4.146a.5.5 0 0 1 .708.708L7.707 13H8.5a.5.5 0 0 1 0 1h-2a.5.5 0 0 1-.5-.5v-2a.5.5 0 0 1 1 0v.793l1.646-1.647Z" fill="#EFA163"/></svg></svg>