<svg width="20" height="20" viewBox="0 0 20 20" fill="none" xmlns="http://www.w3.org/2000/svg">
<path d="M2.5 10.8333V13.3333C2.5 14.2174 2.85119 15.0652 3.47631 15.6904C4.10143 16.3155 4.94928 16.6667 5.83333 16.6667H14.1667C15.0507 16.6667 15.8986 16.3155 16.5237 15.6904C17.1488 15.0652 17.5 14.2174 17.5 13.3333V11.3333C17.5 11.2007 17.4473 11.0735 17.3536 10.9798C17.2598 10.886 17.1326 10.8333 17 10.8333H2.5ZM2.5 10.8333V5.83333C2.5 4.94928 2.85119 4.10143 3.47631 3.47631C4.10143 2.85119 4.94928 2.5 5.83333 2.5H10M6.66667 16.6667L5.83333 18.3333M13.3333 16.6667L14.1667 18.3333" stroke="#EFA163" stroke-width="1.5" stroke-linecap="round" stroke-linejoin="round"/>
<path d="M7.16667 6.66667H12.8333C13.1092 6.66667 13.33 6.44333 13.3 6.16833C13.1783 5.0625 12.6142 2.5 10 2.5C7.38583 2.5 6.82167 5.0625 6.7 6.16833C6.67 6.44333 6.89083 6.66667 7.16667 6.66667Z" stroke="#EFA163" stroke-width="1.5" stroke-linecap="round" stroke-linejoin="round"/>
</svg>
