<svg width="20" height="20" viewBox="0 0 20 20" fill="none" xmlns="http://www.w3.org/2000/svg">
<path d="M5.62484 3.33334H14.3748C14.9584 3.33331 15.52 3.55592 15.9451 3.95575C16.3702 4.35559 16.6267 4.90253 16.6623 5.48501L16.6665 5.62501V8.42001C17.1207 8.54896 17.5241 8.81497 17.8215 9.18173C18.1189 9.54849 18.2958 9.9981 18.3282 10.4692L18.3332 10.625V16.875C18.3331 17.0334 18.273 17.1858 18.1649 17.3015C18.0568 17.4172 17.9088 17.4876 17.7508 17.4984C17.5928 17.5092 17.4366 17.4596 17.3138 17.3597C17.1909 17.2597 17.1106 17.1169 17.089 16.96L17.0832 16.875V15H2.9165V16.875C2.9165 17.026 2.8618 17.172 2.76253 17.2858C2.66326 17.3996 2.52613 17.4736 2.3765 17.4942L2.2915 17.5C2.14047 17.5 1.99455 17.4453 1.88073 17.346C1.7669 17.2468 1.69288 17.1096 1.67234 16.96L1.6665 16.875V10.625C1.6665 9.57584 2.3715 8.69168 3.33317 8.41918V5.62501C3.33314 5.04144 3.55575 4.47984 3.95558 4.05476C4.35542 3.62969 4.90235 3.37316 5.48484 3.33751L5.62484 3.33334ZM16.0415 9.58334H3.95817C3.70029 9.58323 3.45153 9.67877 3.26003 9.85149C3.06853 10.0242 2.94791 10.2618 2.9215 10.5183L2.9165 10.625V13.75H17.0832V10.625C17.0831 10.3673 16.9874 10.1187 16.8147 9.9274C16.642 9.73607 16.4046 9.61557 16.1482 9.58918L16.0415 9.58334ZM14.3748 4.58334H5.62484C5.36696 4.58323 5.1182 4.67877 4.9267 4.85149C4.7352 5.02421 4.61458 5.26182 4.58817 5.51834L4.58317 5.62501V8.33334H5.83317C5.83317 8.11233 5.92097 7.90037 6.07725 7.74409C6.23353 7.58781 6.44549 7.50001 6.6665 7.50001H8.33317C8.53728 7.50004 8.73428 7.57497 8.88681 7.71061C9.03934 7.84624 9.13679 8.03313 9.16067 8.23584L9.1665 8.33334H10.8332C10.8332 8.11233 10.921 7.90037 11.0772 7.74409C11.2335 7.58781 11.4455 7.50001 11.6665 7.50001H13.3332C13.5373 7.50004 13.7343 7.57497 13.8868 7.71061C14.0393 7.84624 14.1368 8.03313 14.1607 8.23584L14.1665 8.33334H15.4165V5.62501C15.4166 5.36713 15.3211 5.11837 15.1484 4.92687C14.9756 4.73537 14.738 4.61475 14.4815 4.58834L14.3748 4.58334Z" fill="#EFA163"/>
</svg>
