<svg width="25" height="24" viewBox="0 0 25 24" fill="none" xmlns="http://www.w3.org/2000/svg">
<path d="M10 19.5V18H5C4.45 18 3.95 17.78 3.59 17.41C3.22 17.05 3 16.55 3 16C3 14.97 3.8 14.11 4.81 14.01C4.87 14 4.93 14 5 14H20C20.07 14 20.13 14 20.19 14.01C20.67 14.05 21.09 14.26 21.41 14.59C21.82 14.99 22.04 15.56 21.99 16.18C21.9 17.23 20.95 18 19.89 18H15V19.5C15 20.88 13.88 22 12.5 22C11.12 22 10 20.88 10 19.5Z" stroke="#EFA163" stroke-width="1.5" stroke-linecap="round" stroke-linejoin="round"/>
<path d="M20.6702 5.3L20.1902 14.01C20.1302 14 20.0702 14 20.0002 14H5.00016C4.93016 14 4.87016 14 4.81016 14.01L4.33016 5.3C4.15016 3.53 5.54016 2 7.31016 2H17.6902C19.4602 2 20.8502 3.53 20.6702 5.3Z" stroke="#EFA163" stroke-width="1.5" stroke-linecap="round" stroke-linejoin="round"/>
<path d="M8.49023 2V7" stroke="#EFA163" stroke-width="1.5" stroke-linecap="round" stroke-linejoin="round"/>
<path d="M12.5 2V4" stroke="#EFA163" stroke-width="1.5" stroke-linecap="round" stroke-linejoin="round"/>
</svg>
