<svg width="20" height="21" viewBox="0 0 20 21" fill="none" xmlns="http://www.w3.org/2000/svg">
<path d="M14.1667 12.1667C14.3877 12.1667 14.5996 12.0789 14.7559 11.9226C14.9122 11.7663 15 11.5543 15 11.3333C15 11.1123 14.9122 10.9004 14.7559 10.7441C14.5996 10.5878 14.3877 10.5 14.1667 10.5C13.9457 10.5 13.7337 10.5878 13.5774 10.7441C13.4211 10.9004 13.3333 11.1123 13.3333 11.3333C13.3333 11.5543 13.4211 11.7663 13.5774 11.9226C13.7337 12.0789 13.9457 12.1667 14.1667 12.1667ZM14.1667 15.5C14.3877 15.5 14.5996 15.4122 14.7559 15.2559C14.9122 15.0996 15 14.8877 15 14.6667C15 14.4457 14.9122 14.2337 14.7559 14.0774C14.5996 13.9211 14.3877 13.8333 14.1667 13.8333C13.9457 13.8333 13.7337 13.9211 13.5774 14.0774C13.4211 14.2337 13.3333 14.4457 13.3333 14.6667C13.3333 14.8877 13.4211 15.0996 13.5774 15.2559C13.7337 15.4122 13.9457 15.5 14.1667 15.5ZM10.8333 11.3333C10.8333 11.5543 10.7455 11.7663 10.5893 11.9226C10.433 12.0789 10.221 12.1667 10 12.1667C9.77899 12.1667 9.56702 12.0789 9.41074 11.9226C9.25446 11.7663 9.16667 11.5543 9.16667 11.3333C9.16667 11.1123 9.25446 10.9004 9.41074 10.7441C9.56702 10.5878 9.77899 10.5 10 10.5C10.221 10.5 10.433 10.5878 10.5893 10.7441C10.7455 10.9004 10.8333 11.1123 10.8333 11.3333ZM10.8333 14.6667C10.8333 14.8877 10.7455 15.0996 10.5893 15.2559C10.433 15.4122 10.221 15.5 10 15.5C9.77899 15.5 9.56702 15.4122 9.41074 15.2559C9.25446 15.0996 9.16667 14.8877 9.16667 14.6667C9.16667 14.4457 9.25446 14.2337 9.41074 14.0774C9.56702 13.9211 9.77899 13.8333 10 13.8333C10.221 13.8333 10.433 13.9211 10.5893 14.0774C10.7455 14.2337 10.8333 14.4457 10.8333 14.6667ZM5.83333 12.1667C6.05435 12.1667 6.26631 12.0789 6.42259 11.9226C6.57887 11.7663 6.66667 11.5543 6.66667 11.3333C6.66667 11.1123 6.57887 10.9004 6.42259 10.7441C6.26631 10.5878 6.05435 10.5 5.83333 10.5C5.61232 10.5 5.40036 10.5878 5.24408 10.7441C5.0878 10.9004 5 11.1123 5 11.3333C5 11.5543 5.0878 11.7663 5.24408 11.9226C5.40036 12.0789 5.61232 12.1667 5.83333 12.1667ZM5.83333 15.5C6.05435 15.5 6.26631 15.4122 6.42259 15.2559C6.57887 15.0996 6.66667 14.8877 6.66667 14.6667C6.66667 14.4457 6.57887 14.2337 6.42259 14.0774C6.26631 13.9211 6.05435 13.8333 5.83333 13.8333C5.61232 13.8333 5.40036 13.9211 5.24408 14.0774C5.0878 14.2337 5 14.4457 5 14.6667C5 14.8877 5.0878 15.0996 5.24408 15.2559C5.40036 15.4122 5.61232 15.5 5.83333 15.5Z" fill="#27334C"/>
<path fill-rule="evenodd" clip-rule="evenodd" d="M5.83334 1.95831C5.9991 1.95831 6.15808 2.02416 6.27529 2.14137C6.3925 2.25858 6.45834 2.41755 6.45834 2.58331V3.21915C7.01001 3.20831 7.61751 3.20831 8.28584 3.20831H11.7133C12.3825 3.20831 12.99 3.20831 13.5417 3.21915V2.58331C13.5417 2.41755 13.6075 2.25858 13.7247 2.14137C13.8419 2.02416 14.0009 1.95831 14.1667 1.95831C14.3324 1.95831 14.4914 2.02416 14.6086 2.14137C14.7258 2.25858 14.7917 2.41755 14.7917 2.58331V3.27248C15.0083 3.28915 15.2133 3.30998 15.4075 3.33581C16.3842 3.46748 17.175 3.74415 17.7992 4.36748C18.4225 4.99165 18.6992 5.78248 18.8308 6.75915C18.9583 7.70915 18.9583 8.92165 18.9583 10.4533V12.2133C18.9583 13.745 18.9583 14.9583 18.8308 15.9075C18.6992 16.8841 18.4225 17.675 17.7992 18.2991C17.175 18.9225 16.3842 19.1991 15.4075 19.3308C14.4575 19.4583 13.245 19.4583 11.7133 19.4583H8.28751C6.75584 19.4583 5.54251 19.4583 4.59334 19.3308C3.61668 19.1991 2.82584 18.9225 2.20168 18.2991C1.57834 17.675 1.30168 16.8841 1.17001 15.9075C1.04251 14.9575 1.04251 13.745 1.04251 12.2133V10.4533C1.04251 8.92165 1.04251 7.70831 1.17001 6.75915C1.30168 5.78248 1.57834 4.99165 2.20168 4.36748C2.82584 3.74415 3.61668 3.46748 4.59334 3.33581C4.78751 3.30998 4.99334 3.28915 5.20918 3.27248V2.58331C5.20918 2.4177 5.27491 2.25885 5.39194 2.14167C5.50897 2.02448 5.66773 1.95853 5.83334 1.95831ZM4.75834 4.57498C3.92084 4.68748 3.43751 4.89915 3.08501 5.25165C2.73251 5.60415 2.52084 6.08748 2.40834 6.92581C2.38918 7.06748 2.37334 7.21748 2.36001 7.37498H17.64C17.6267 7.21665 17.6108 7.06748 17.5917 6.92498C17.4792 6.08748 17.2675 5.60415 16.915 5.25165C16.5625 4.89915 16.0792 4.68748 15.2408 4.57498C14.385 4.45998 13.2558 4.45831 11.6667 4.45831H8.33334C6.74418 4.45831 5.61584 4.45998 4.75834 4.57498ZM2.29168 10.5C2.29168 9.78831 2.29168 9.16915 2.30251 8.62498H17.6975C17.7083 9.16915 17.7083 9.78831 17.7083 10.5V12.1666C17.7083 13.7558 17.7067 14.885 17.5917 15.7416C17.4792 16.5791 17.2675 17.0625 16.915 17.415C16.5625 17.7675 16.0792 17.9791 15.2408 18.0916C14.385 18.2066 13.2558 18.2083 11.6667 18.2083H8.33334C6.74418 18.2083 5.61584 18.2066 4.75834 18.0916C3.92084 17.9791 3.43751 17.7675 3.08501 17.415C2.73251 17.0625 2.52084 16.5791 2.40834 15.7408C2.29334 14.885 2.29168 13.7558 2.29168 12.1666V10.5Z" fill="#27334C"/>
</svg>
