<svg width="20" height="20" viewBox="0 0 20 20" fill="none" xmlns="http://www.w3.org/2000/svg">
<path d="M13.73 2.06348H5.7935C3.60302 2.06348 1.82524 3.83331 1.82524 6.01586V10.7619V11.5555C1.82524 13.7381 3.60302 15.5079 5.7935 15.5079H6.98397C7.19826 15.5079 7.48397 15.6508 7.6189 15.8254L8.80937 17.4048C9.33318 18.1032 10.1903 18.1032 10.7141 17.4048L11.9046 15.8254C12.0554 15.627 12.2935 15.5079 12.5395 15.5079H13.73C15.9205 15.5079 17.6983 13.7381 17.6983 11.5555V6.01586C17.6983 3.83331 15.9205 2.06348 13.73 2.06348ZM10.5554 11.3889H5.7935C5.4681 11.3889 5.19826 11.1191 5.19826 10.7936C5.19826 10.4682 5.4681 10.1984 5.7935 10.1984H10.5554C10.8808 10.1984 11.1507 10.4682 11.1507 10.7936C11.1507 11.1191 10.8808 11.3889 10.5554 11.3889ZM13.73 7.42062H5.7935C5.4681 7.42062 5.19826 7.15077 5.19826 6.82538C5.19826 6.49998 5.4681 6.23014 5.7935 6.23014H13.73C14.0554 6.23014 14.3252 6.49998 14.3252 6.82538C14.3252 7.15077 14.0554 7.42062 13.73 7.42062Z" fill="#868893"/>
</svg>
