<svg width="24" height="24" viewBox="0 0 24 24" fill="none" xmlns="http://www.w3.org/2000/svg">
<path d="M4.15 4.9H3.1V2.1H11.9V4.9H10.85H10.6976L10.7583 5.03983L12.3715 8.75503C12.0823 8.90991 11.8071 9.0719 11.5457 9.24104C11.2967 9.40212 11.0605 9.58214 10.8369 9.78104L8.79206 4.96094L8.7662 4.9H8.7H6.3H6.2339L6.208 4.96081L3.908 10.3608L3.9 10.3796V10.4V18V18.1H4H8.17149C8.25391 18.4291 8.36163 18.7545 8.49458 19.0762C8.6142 19.3656 8.75479 19.6403 8.91637 19.9H2.1V9.97078L4.24172 5.03984L4.30246 4.9H4.15ZM15.9 8.89827C15.2696 8.87633 14.7367 8.64524 14.2957 8.20429C13.8316 7.74021 13.6 7.17419 13.6 6.5C13.6 5.82581 13.8316 5.25979 14.2957 4.79571C14.7367 4.35476 15.2696 4.12367 15.9 4.10173V8.89827ZM20.8983 8.9H16.1017C16.1237 8.26964 16.3548 7.73666 16.7957 7.29571C17.2598 6.83163 17.8258 6.6 18.5 6.6C19.1742 6.6 19.7402 6.83163 20.2043 7.29571C20.6452 7.73666 20.8763 8.26964 20.8983 8.9ZM16 21.9C14.3596 21.9 12.9684 21.327 11.8207 20.1793C10.673 19.0316 10.1 17.6404 10.1 16C10.1 14.3596 10.673 12.9684 11.8207 11.8207C12.9684 10.673 14.3596 10.1 16 10.1C17.6404 10.1 19.0316 10.673 20.1793 11.8207C21.327 12.9684 21.9 14.3596 21.9 16C21.9 17.6404 21.327 19.0316 20.1793 20.1793C19.0316 21.327 17.6404 21.9 16 21.9ZM16 20.1C17.1267 20.1 18.0938 19.6976 18.8957 18.8957C19.6976 18.0938 20.1 17.1267 20.1 16C20.1 14.8733 19.6976 13.9062 18.8957 13.1043C18.0938 12.3024 17.1267 11.9 16 11.9C14.8733 11.9 13.9062 12.3024 13.1043 13.1043C12.3024 13.9062 11.9 14.8733 11.9 16C11.9 17.1267 12.3024 18.0938 13.1043 18.8957C13.9062 19.6976 14.8733 20.1 16 20.1Z" fill="#EFA163" stroke="white" stroke-width="0.2"/>
</svg>
