<svg width="31" height="31" viewBox="0 0 31 31" fill="none" xmlns="http://www.w3.org/2000/svg">
<path d="M26.1562 26.1562V13.9863C26.1541 13.8522 26.1251 13.72 26.071 13.5973C26.017 13.4746 25.9389 13.3639 25.8414 13.2719L16.1539 4.46834C15.9753 4.30496 15.742 4.21436 15.5 4.21436C15.258 4.21436 15.0247 4.30496 14.8461 4.46834L5.15859 13.2719C5.06111 13.3639 4.98303 13.4746 4.92896 13.5973C4.87489 13.72 4.84592 13.8522 4.84375 13.9863V26.1562" stroke="white" stroke-width="2" stroke-linecap="round" stroke-linejoin="round"/>
<path d="M18.4062 26.1562V19.375C18.4062 19.1181 18.3042 18.8717 18.1225 18.69C17.9408 18.5083 17.6944 18.4062 17.4375 18.4062H13.5625C13.3056 18.4062 13.0592 18.5083 12.8775 18.69C12.6958 18.8717 12.5938 19.1181 12.5938 19.375V26.1562" fill="#EFA163"/>
<path d="M18.4062 26.1562V19.375C18.4062 19.1181 18.3042 18.8717 18.1225 18.69C17.9408 18.5083 17.6944 18.4062 17.4375 18.4062H13.5625C13.3056 18.4062 13.0592 18.5083 12.8775 18.69C12.6958 18.8717 12.5938 19.1181 12.5938 19.375V26.1562" stroke="white" stroke-width="2" stroke-linecap="round" stroke-linejoin="round"/>
<path d="M1.9375 26.1562H29.0625" stroke="white" stroke-width="2" stroke-linecap="round" stroke-linejoin="round"/>
</svg>
