<svg width="25" height="24" viewBox="0 0 25 24" fill="none" xmlns="http://www.w3.org/2000/svg">
<path d="M11.6221 5.102C11.4741 4.69922 11.1776 4.36832 10.7935 4.17716C10.4093 3.98601 9.96657 3.9491 9.55605 4.074C7.61005 4.674 6.25005 6.344 6.54205 8.276C6.86862 10.4203 7.59523 12.4841 8.68405 14.36C9.76123 16.2316 11.1734 17.8892 12.8501 19.25C14.3581 20.47 16.4741 20.134 17.9661 18.734C18.2799 18.4394 18.4703 18.0368 18.4989 17.6073C18.5275 17.1779 18.3921 16.7536 18.1201 16.42L17.0521 15.114C16.8381 14.8514 16.5502 14.6591 16.2257 14.5621C15.9012 14.4651 15.555 14.4679 15.2321 14.57L12.7681 15.35L12.3381 14.906C11.7963 14.3441 11.3224 13.7205 10.9261 13.048C10.5414 12.3679 10.2418 11.6432 10.0341 10.89L9.86805 10.3L11.7681 8.55C12.0188 8.31721 12.1946 8.01515 12.2733 7.6822C12.352 7.34924 12.33 7.00041 12.2101 6.68L11.6241 5.104L11.6221 5.102ZM8.96805 2.162C9.86636 1.88716 10.8358 1.96626 11.6776 2.3831C12.5195 2.79995 13.1701 3.52296 13.4961 4.404L14.0821 5.98C14.3406 6.67239 14.3873 7.42602 14.2164 8.14505C14.0454 8.86408 13.6645 9.51604 13.1221 10.018L12.1421 10.92C12.2681 11.268 12.4381 11.666 12.6581 12.052C12.8781 12.432 13.1341 12.778 13.3681 13.06L14.6281 12.66C15.3325 12.4376 16.0874 12.4317 16.7952 12.6432C17.503 12.8546 18.1311 13.2737 18.5981 13.846L19.6661 15.152C20.2596 15.8778 20.5555 16.8019 20.4938 17.7375C20.4322 18.673 20.0177 19.5503 19.3341 20.192C17.3461 22.058 14.1001 22.832 11.5941 20.804C9.72674 19.2891 8.15391 17.4438 6.95405 15.36C5.73935 13.2677 4.92862 10.9657 4.56405 8.574C4.08405 5.388 6.37005 2.962 8.96805 2.164V2.162Z" fill="#EFA163"/>
</svg>
