<svg width="20" height="20" viewBox="0 0 20 20" fill="none" xmlns="http://www.w3.org/2000/svg">
<path d="M2 6.75C2 6.02065 2.28973 5.32118 2.80546 4.80546C3.32118 4.28973 4.02065 4 4.75 4H15.25C15.9793 4 16.6788 4.28973 17.1945 4.80546C17.7103 5.32118 18 6.02065 18 6.75V13.25C18 13.9793 17.7103 14.6788 17.1945 15.1945C16.6788 15.7103 15.9793 16 15.25 16H4.75C4.02065 16 3.32118 15.7103 2.80546 15.1945C2.28973 14.6788 2 13.9793 2 13.25V6.75ZM4.75 5C4.28587 5 3.84075 5.18437 3.51256 5.51256C3.18437 5.84075 3 6.28587 3 6.75V13.25C3 14.216 3.784 15 4.75 15H15.25C15.7141 15 16.1592 14.8156 16.4874 14.4874C16.8156 14.1592 17 13.7141 17 13.25V6.75C17 6.28587 16.8156 5.84075 16.4874 5.51256C16.1592 5.18437 15.7141 5 15.25 5H4.75ZM11 6.5C11 6.36739 11.0527 6.24021 11.1464 6.14645C11.2402 6.05268 11.3674 6 11.5 6H13.5C13.6326 6 13.7598 6.05268 13.8536 6.14645C13.9473 6.24021 14 6.36739 14 6.5V8.5C14 8.63261 13.9473 8.75979 13.8536 8.85355C13.7598 8.94732 13.6326 9 13.5 9C13.3674 9 13.2402 8.94732 13.1464 8.85355C13.0527 8.75979 13 8.63261 13 8.5V7.707L11.354 9.354C11.2601 9.44789 11.1328 9.50063 11 9.50063C10.8672 9.50063 10.7399 9.44789 10.646 9.354C10.5521 9.26011 10.4994 9.13278 10.4994 9C10.4994 8.86722 10.5521 8.73989 10.646 8.646L12.293 7H11.5C11.3674 7 11.2402 6.94732 11.1464 6.85355C11.0527 6.75979 11 6.63261 11 6.5ZM8.646 10.646C8.73989 10.5521 8.86722 10.4994 9 10.4994C9.13278 10.4994 9.26011 10.5521 9.354 10.646C9.44789 10.7399 9.50063 10.8672 9.50063 11C9.50063 11.1328 9.44789 11.2601 9.354 11.354L7.707 13H8.5C8.63261 13 8.75979 13.0527 8.85355 13.1464C8.94732 13.2402 9 13.3674 9 13.5C9 13.6326 8.94732 13.7598 8.85355 13.8536C8.75979 13.9473 8.63261 14 8.5 14H6.5C6.36739 14 6.24021 13.9473 6.14645 13.8536C6.05268 13.7598 6 13.6326 6 13.5V11.5C6 11.3674 6.05268 11.2402 6.14645 11.1464C6.24021 11.0527 6.36739 11 6.5 11C6.63261 11 6.75979 11.0527 6.85355 11.1464C6.94732 11.2402 7 11.3674 7 11.5V12.293L8.646 10.646Z" fill="#EFA163"/>
</svg>
